<svg viewBox="0 0 340 42" xmlns="http://www.w3.org/2000/svg" xmlns:xlink="http://www.w3.org/1999/xlink"><title>Page 1</title><defs><path d="M0 .51V39.2h12.512c9.606 0 14.79-4.073 14.79-11.582 0-5.217-2.907-8.144-7.205-9.29 3.158-1.655 5.308-4.328 5.308-8.146 0-7.637-5.813-9.673-12.385-9.673H0zm7.077 5.345h4.679c3.79 0 6.571.892 6.571 5.092 0 3.053-2.022 5.344-6.952 5.344H7.077V5.855zm0 15.781h5.689c4.549 0 7.204 2.038 7.204 5.982 0 3.438-1.77 6.11-7.458 6.11H7.077V21.635z" id="a"/><path d="M.138 16.165c0 8.78 3.918 14.89 13.396 14.89 5.435 0 9.228-2.546 10.114-3.31l-2.15-4.581c-1.389 1.018-3.79 2.546-7.204 2.546-4.803 0-6.952-3.563-7.205-7.383 5.308 0 16.305-1.272 16.305-10.18 0-5.092-3.539-8.02-9.228-8.147C5.068 0 .138 7.638.138 16.165zM13.914 5.09c2.022 0 3.413 1.274 3.54 3.436 0 4.456-7.331 5.346-10.492 5.346.127-4.2 2.401-8.782 6.952-8.782z" id="c"/><path d="M.012 0v31.436c0 4.072 0 9.673 8.973 9.673 2.78 0 5.56-.765 7.332-2.038l-1.772-4.453c-.883.637-2.401 1.274-3.917 1.274-2.401 0-3.793-1.02-3.793-4.583V16.547h7.838v-5.348H6.835V0H.012z" id="e"/><path d="M.757 0v40.473h6.827v-19.09c0-2.927 2.528-5.728 5.813-5.728 3.793 0 4.425 2.674 4.425 6.109v18.709h6.826V20.49c0-6.872-3.161-10.182-9.228-10.182-3.033 0-5.94 1.017-7.836 3.31V0H.757z" id="g"/><path d="M.136 16.165c0 8.78 3.92 14.89 13.4 14.89 5.434 0 9.227-2.546 10.11-3.31l-2.148-4.581c-1.39 1.018-3.792 2.546-7.204 2.546-4.803 0-6.953-3.563-7.205-7.383 5.309 0 16.306-1.272 16.306-10.18 0-5.092-3.539-8.02-9.228-8.147C5.067 0 .137 7.638.137 16.165zM13.79 5.09c2.02 0 3.412 1.274 3.412 3.436 0 4.456-7.205 5.346-10.365 5.346.127-4.2 2.402-8.782 6.953-8.782z" id="i"/><path d="M0 .51V39.2h7.078-.126V25.583h4.929c8.72 0 14.915-4.456 14.915-13.236 0-7.765-5.183-11.838-13.651-11.838H0zm7.078 5.728h3.54c5.688 0 9.1.89 9.1 6.871 0 5.091-3.412 6.873-8.469 6.873v.128H7.08V6.238z" id="k"/><path d="M.139 17.055c0 8.271 3.157 14.128 11.248 14.128 3.16 0 6.067-1.274 7.836-3.947h.252l.38 3.055h5.94l-.505-5.601h.128V2.29C21.244.764 17.073.256 15.18.256 5.193.256.139 6.873.139 17.055zm6.696-.381c0-6.238 1.896-11.455 7.332-11.455 1.769 0 3.414.381 4.298.763v15.02c0 2.543-2.148 5.089-5.687 5.089-4.803 0-5.943-4.58-5.943-9.417z" id="m"/><path d="M6.572 5.22l-.631-4.203H.25l.506 4.71v24.564h6.827V11.838c0-3.31 2.022-5.856 5.18-5.856 1.392 0 2.782.51 4.046 1.147l1.266-5.856C16.81.508 15.292.127 13.524.127c-2.907 0-5.688 1.782-6.952 5.092z" id="o"/><path d="M.126 0v31.564c0 4.072 0 9.672 8.974 9.672 2.781 0 5.563-.763 7.332-2.036l-1.645-4.582c-.884.637-2.402 1.274-3.917 1.274-2.402 0-3.792-1.02-3.792-4.583V16.547h7.836v-5.348H7.078V0H.126z" id="q"/><path d="M6.457 4.71l-.632-3.693H.011l.506 5.092v24.182h6.826V11.326c0-3.052 2.526-5.853 5.94-5.853 3.666 0 4.296 2.674 4.296 6.237v18.58h6.826V10.31c0-6.872-3.285-10.183-9.1-10.183-3.79 0-6.824 1.655-8.848 4.583z" id="s"/><path d="M.506 16.165c0 8.78 3.92 14.89 13.397 14.89 5.437 0 9.226-2.546 10.112-3.31l-2.15-4.581c-1.39 1.018-3.79 2.546-7.205 2.546-4.803 0-6.95-3.563-7.204-7.383 5.311 0 16.305-1.272 16.305-10.18 0-5.092-3.412-8.02-9.226-8.147C5.435 0 .505 7.638.505 16.165zM14.283 5.09c2.022 0 3.41 1.274 3.41 3.436 0 4.456-7.204 5.346-10.36 5.346.123-4.2 2.4-8.782 6.95-8.782z" id="u"/><path d="M6.825 5.22l-.633-4.203H.506l.505 4.71v24.564h6.827V11.838c0-3.31 2.02-5.856 5.18-5.856 1.392 0 2.781.51 4.045 1.147l1.264-5.856C17.063.508 15.547.127 13.778.127c-2.91 0-5.689 1.782-6.953 5.092z" id="w"/></defs><g fill="none" fill-rule="evenodd"><g transform="translate(0 1.273)"><mask id="b" fill="#fff"><use xlink:href="#a"/></mask><path fill="#FFF" mask="url(#b)" d="M-6.32 45.564h39.94V-5.855H-6.32z"/></g><g transform="translate(31.335 10.182)"><mask id="d" fill="#fff"><use xlink:href="#c"/></mask><path fill="#FFF" mask="url(#d)" d="M-6.182 37.418h36.149V-6.364h-36.15z"/></g><g transform="translate(71.78)"><mask id="f" fill="#fff"><use xlink:href="#e"/></mask><path fill="#FFF" mask="url(#f)" d="M-6.309 47.473h28.945V-6.364H-6.31z"/></g><g transform="translate(91.004)"><mask id="h" fill="#fff"><use xlink:href="#g"/></mask><path fill="#FFF" mask="url(#h)" d="M-5.561 46.836h36.528v-53.2H-5.561z"/></g><g transform="translate(121.074 10.182)"><mask id="j" fill="#fff"><use xlink:href="#i"/></mask><path fill="#FFF" mask="url(#j)" d="M-6.182 37.418h36.149V-6.364h-36.15z"/></g><g transform="translate(161.784 1.273)"><mask id="l" fill="#fff"><use xlink:href="#k"/></mask><path fill="#FFF" mask="url(#l)" d="M-6.32 45.564h39.435V-5.855H-6.32z"/></g><g transform="translate(190.591 10.182)"><mask id="n" fill="#fff"><use xlink:href="#m"/></mask><path fill="#FFF" mask="url(#n)" d="M-6.182 37.545h38.297V-6.109H-6.182z"/></g><g transform="translate(222.454 10.182)"><mask id="p" fill="#fff"><use xlink:href="#o"/></mask><path fill="#FFF" mask="url(#p)" d="M-6.067 36.655h30.461V-6.236h-30.46z"/></g><g transform="translate(243.94)"><mask id="r" fill="#fff"><use xlink:href="#q"/></mask><path fill="#FFF" mask="url(#r)" d="M-6.193 47.6H22.75V-6.364H-6.193z"/></g><g transform="translate(263.9 10.182)"><mask id="t" fill="#fff"><use xlink:href="#s"/></mask><path fill="#FFF" mask="url(#t)" d="M-6.309 36.655h37.034V-6.236H-6.31z"/></g><g transform="translate(293.234 10.182)"><mask id="v" fill="#fff"><use xlink:href="#u"/></mask><path fill="#FFF" mask="url(#v)" d="M-5.814 37.418h36.149V-6.364h-36.15z"/></g><g transform="translate(321.04 10.182)"><mask id="x" fill="#fff"><use xlink:href="#w"/></mask><path fill="#FFF" mask="url(#x)" d="M-5.814 36.655h30.46V-6.236h-30.46z"/></g></g></svg>
