<svg viewBox="0 0 338 150" xmlns="http://www.w3.org/2000/svg" xmlns:xlink="http://www.w3.org/1999/xlink"><title>Group 16</title><defs><path id="a" d="M0 .046h407.82v235.721H0z"/><path id="c" d="M0 .046h407.82v235.721H0z"/><path id="e" d="M0 .046h407.82v235.721H0z"/><path id="g" d="M0 .046h407.82v235.721H0z"/><path id="i" d="M0 .046h407.82v235.721H0z"/><path id="k" d="M0 .046h407.82v235.721H0z"/><path id="m" d="M0 .046h407.82v235.721H0z"/><path id="o" d="M0 .046h407.82v235.721H0z"/><path id="q" d="M0 .046h407.82v235.721H0z"/><path id="s" d="M0 .046h407.82v235.721H0z"/><path id="u" d="M0 .046h407.82v235.721H0z"/><path id="w" d="M0 .046h407.82v235.721H0z"/><path id="y" d="M0 .046h407.82v235.721H0z"/></defs><g fill="none" fill-rule="evenodd"><path d="M5.158 64.625c0-.99-.528-1.453-1.453-1.453H.868v-4.087h4.884c2.839 0 4.027 1.185 4.027 4.022v17.085h26.665V63.107c0-2.837 1.188-4.022 3.96-4.022h4.95v4.087h-2.838c-.925 0-1.452.463-1.452 1.453v40.828h-4.62V84.28H9.779v21.173h-4.62V64.625zm70.885 20.843c-.265-6.86-4.49-10.223-9.373-10.223-5.478 0-10.298 3.562-11.418 10.223h20.79zm-9.307-13.984c9.175 0 13.925 7.058 13.925 15.303 0 .792-.131 2.243-.131 2.243H55.053c.133 8.376 6.006 13.19 12.87 13.19 6.073 0 9.968-4.089 9.968-4.089l2.178 3.365s-4.818 4.749-12.342 4.749c-9.836 0-17.36-7.124-17.36-17.347 0-10.884 7.459-17.414 16.369-17.414zm31.81 30.936c6.337 0 10.166-6.598 10.166-12.335v-1.518h-1.916c-5.214 0-15.643.134-15.643 7.586 0 3.101 2.443 6.267 7.393 6.267m8.316-17.415h1.85v-.396c0-6.924-2.51-9.365-8.581-9.365-1.65 0-6.469.463-6.469 2.903v2.11h-4.291V77.09c0-4.617 7.921-5.605 10.825-5.605 10.495 0 13.003 5.605 13.003 12.729v15.896c0 .988.528 1.45 1.453 1.45h2.771v3.892h-4.553c-2.838 0-3.96-1.253-3.96-3.958 0-1.45.065-2.44.065-2.44h-.133c.067 0-2.705 7.19-11.022 7.19-5.545 0-11.286-3.232-11.286-9.827 0-11.016 14.585-11.413 20.328-11.413m17.621-20.577c0-.924-.528-1.452-1.453-1.452h-2.771v-3.89h4.686c2.837 0 4.027 1.187 4.027 4.022v37.003c0 .99.528 1.452 1.451 1.452h2.773v3.89h-4.686c-2.839 0-4.027-1.186-4.027-4.023V64.427zm16.631 11.609h-4.357v-3.761h4.423v-9.167h4.421v9.167h8.316v3.76h-8.316v16.887c0 7.783 4.952 8.771 7.46 8.771.922 0 1.516-.131 1.516-.131v4.023s-.791.132-1.913.132c-3.828 0-11.55-1.253-11.55-12.335V76.036zm21.053-11.609c0-.924-.528-1.452-1.453-1.452h-2.771v-3.89h4.686c2.839 0 4.027 1.187 4.027 3.89v14.05c0 1.516-.132 2.705-.132 2.705h.132c1.254-3.167 5.675-8.245 13.134-8.245 8.25 0 11.155 4.681 11.155 12.86v15.765c0 .99.528 1.452 1.451 1.452h2.773v3.89h-4.686c-2.839 0-4.027-1.186-4.027-4.023V85.535c0-5.213-.791-9.829-7.26-9.829-5.61 0-10.495 3.892-12.012 9.432-.396 1.319-.528 2.837-.528 4.419v15.896h-4.49V64.427zm54.515 7.058c3.762 0 11.815 1.582 11.815 7.056v2.97h-4.224v-1.913c0-2.77-4.818-4.09-7.59-4.09-7.129 0-12.872 5.343-12.872 13.39 0 8.178 6.006 13.256 13.003 13.256 6.8 0 10.692-4.681 10.692-4.681l2.113 3.362s-4.489 5.41-13.002 5.41c-9.901 0-17.426-7.057-17.426-17.348 0-10.157 7.59-17.412 17.491-17.412m29.368 30.935c6.337 0 10.166-6.598 10.166-12.335v-1.518h-1.915c-5.215 0-15.642.134-15.642 7.586 0 3.101 2.442 6.267 7.391 6.267m8.317-17.415h1.85v-.396c0-6.924-2.51-9.365-8.582-9.365-1.65 0-6.468.463-6.468 2.903v2.11h-4.29V77.09c0-4.617 7.92-5.605 10.824-5.605 10.495 0 13.002 5.605 13.002 12.729v15.896c0 .988.529 1.45 1.454 1.45h2.77v3.892h-4.552c-2.839 0-3.961-1.253-3.961-3.958 0-1.45.066-2.44.066-2.44h-.132c.066 0-2.707 7.19-11.023 7.19-5.544 0-11.287-3.232-11.287-9.827 0-11.016 14.588-11.413 20.329-11.413m17.687-7.385c0-.923-.529-1.453-1.454-1.453h-2.77v-3.89h4.62c2.771 0 4.025 1.121 4.025 3.759v2.243c0 1.384-.132 2.506-.132 2.506h.132c1.585-5.012 5.28-8.839 10.495-8.839.925 0 1.782.2 1.782.2v4.418s-.791-.132-1.65-.132c-4.687 0-8.185 3.694-9.636 8.574-.66 2.111-.925 4.354-.925 6.466v13.982h-4.487V77.619zm45.144 7.849c-.265-6.86-4.49-10.223-9.373-10.223-5.478 0-10.297 3.562-11.418 10.223h20.79zm-9.307-13.984c9.175 0 13.926 7.058 13.926 15.303 0 .792-.13 2.243-.13 2.243h-25.48c.134 8.376 6.007 13.19 12.872 13.19 6.072 0 9.967-4.089 9.967-4.089l2.179 3.365s-4.818 4.749-12.343 4.749c-9.836 0-17.36-7.124-17.36-17.347 0-10.884 7.459-17.414 16.369-17.414zM172.138 33.387c.004.008.012.016.016.024v-.016c-.002-.004-.014-.008-.016-.008M25.696 44.9c-10.112 0-17.908-8.631-17.908-19.44 0-11.16 7.726-18.67 17.699-18.67 4.985 0 12.008 2.106 12.008 6.246v2.807h6.462v-4.841C43.957 3.07 32.017.263 25.345.263 11.158.263.485 11.141.485 25.46c0 14.598 10.323 26.038 25.141 26.038 12.5 0 19.525-8.283 19.525-8.283l-3.793-5.052S35.529 44.9 25.696 44.9m31.469-16.142c1.053-5.895 5.269-9.054 10.463-9.054 4.426 0 8.15 3.16 8.359 9.054H57.165zM67.7 14.3c-10.112 0-17.838 7.298-17.838 18.599 0 10.528 7.654 18.6 18.893 18.6 8.426 0 13.694-5.196 13.694-5.196l-2.95-4.84s-4.284 4.14-10.395 4.14c-6.321 0-11.8-4.282-12.22-11.861H82.8s.21-1.897.21-2.81c0-9.192-5.337-16.632-15.31-16.632zm56.54 28.986v-15.37c0-9.054-3.794-13.615-12.22-13.615-7.726 0-11.94 5.051-13.345 8.14h-.14s.14-.911.14-2.035v-1.333c0-2.597-1.473-3.93-4.495-3.93h-6.532v5.825h2.88c.983 0 1.545.492 1.545 1.544v28.143h6.813V34.022c0-1.755.142-3.369.632-4.773 1.405-5.124 5.759-8.701 11.237-8.701 5.689 0 6.673 3.93 6.673 8.912v16.703c0 3.16 1.334 4.492 4.493 4.492h6.744V44.83h-2.88c-.983 0-1.545-.492-1.545-1.544m18.897-6.387V20.616h8.497v-5.474h-8.497V5.387h-6.672v9.755h-4.776v5.474h4.636v17.056c0 11.86 9.06 13.265 13.553 13.265 1.475 0 2.388-.142 2.388-.142V44.76s-.632.142-1.615.142c-2.599 0-7.514-.912-7.514-8.002" fill="#FEFEFE"/><path d="M174.715 22.755a5.792 5.792 0 1 1-.002 11.584 5.792 5.792 0 0 1 .002-11.584m26.93 1.232h-.141s.141-1.054.141-2.459v-2.245c0-2.878-1.475-4.141-4.565-4.141h-6.462v5.825h2.88c.983 0 1.545.492 1.545 1.543v6.265c-1.184 9.9-9.624 17.604-19.84 17.604-8.481 0-15.38-6.9-15.38-15.373 0-4.757 2.858-8.85 6.948-10.673-2.264 2.12-3.7 5.225-3.7 8.7 0 1.031.138 2.027.373 2.981.028.13.066.255.092.38.012.03.016.06.024.088a10.676 10.676 0 0 0 6.843 7.49c.104.038.208.08.313.114h.006a10.07 10.07 0 0 0 4.376.418c6.332-.62 11.302-5.962 11.302-12.452 0-8.2-6.682-14.87-14.886-14.87-9.836 0-17.837 7.996-17.837 17.824 0 11.86 9.654 21.51 21.526 21.51 7.936 0 15.042-3.564 19.84-9.157v7.297h6.811V36.128c0-2.175.212-4.353.844-6.389 1.616-5.262 5.619-8.35 9.974-8.35 1.123 0 2.036.21 2.036.21V14.86s-.913-.14-1.826-.14c-5.478 0-9.552 4.07-11.237 9.266m31.185 19.3v-23.65c0-3.16-1.334-4.493-4.495-4.493h-6.672v5.825h2.88c.983 0 1.545.492 1.545 1.544v23.65c0 3.16 1.334 4.493 4.495 4.493h6.672V44.83h-2.88c-.983 0-1.545-.492-1.545-1.544" fill="#FEFEFE"/><g transform="translate(-40 -42)"><mask id="b" fill="#fff"><use xlink:href="#a"/></mask><path fill="#FEFEFE" mask="url(#b)" d="M272.338 43.105h-6.11v7.088h6.11z"/></g><g transform="translate(-40 -42)"><mask id="d" fill="#fff"><use xlink:href="#c"/></mask><path d="M317.218 85.286v-15.37c0-9.054-3.793-13.615-12.22-13.615-7.726 0-11.94 5.051-13.345 8.14h-.14s.14-.911.14-2.035v-1.333c0-2.597-1.473-3.93-4.495-3.93h-6.532v5.825h2.88c.983 0 1.545.492 1.545 1.544v28.143h6.814V76.022c0-1.755.141-3.369.631-4.773 1.406-5.124 5.76-8.701 11.237-8.701 5.689 0 6.674 3.93 6.674 8.912v16.703c0 3.16 1.333 4.492 4.493 4.492h6.743V86.83h-2.88c-.983 0-1.545-.492-1.545-1.544" fill="#FEFEFE" mask="url(#d)"/></g><g transform="translate(-40 -42)"><mask id="f" fill="#fff"><use xlink:href="#e"/></mask><path d="M342.857 86.339c-6.39 0-10.254-5.054-10.254-12.422 0-7.23 3.513-11.721 9.692-11.721 5.478 0 10.043 2.667 10.043 11.932 0 9.263-4.565 12.21-9.48 12.21zm13.836-29.197c-2.809 0-3.933 1.474-3.933 3.58v1.123h-.14s-2.529-5.546-11.38-5.546c-9.9 0-15.59 7.582-15.59 17.759 0 10.245 6.04 18.177 15.874 18.177 5.196 0 8.497-1.966 10.604-5.404h.14s-.14 1.123-.14 2.245v2.386c0 7.158-5.057 9.897-11.236 9.897-5.339 0-9.694-2.387-9.694-2.387l-2.316 5.474c3.512 1.755 7.866 2.948 12.15 2.948 8.99 0 17.908-4.492 17.908-16.213v-26.81c0-.913.631-1.403 1.544-1.403h2.811v-5.826h-6.602z" fill="#FEFEFE" mask="url(#f)"/></g><g transform="translate(-40 -42)"><mask id="h" fill="#fff"><use xlink:href="#g"/></mask><path fill="#FEFEFE" mask="url(#h)" d="M44.311 189.044h3.18V158.27h-3.18v-1.986h8.494v1.986h-3.18v30.774h3.18v1.986h-8.494z"/></g><g transform="translate(-40 -42)"><mask id="j" fill="#fff"><use xlink:href="#i"/></mask><path d="M67.504 189.044h2.136c.694 0 1.093-.346 1.093-1.091v-31.67h1.987l19.818 27.251c1.142 1.588 2.83 4.369 2.83 4.369h.1s-.249-2.632-.249-4.369v-24.372c0-2.034.845-2.878 2.883-2.878h2.481v1.986h-2.135c-.695 0-1.094.348-1.094 1.091v31.67H95.37L75.55 163.78c-1.142-1.59-2.83-4.369-2.83-4.369h-.1s.247 2.632.247 4.369v24.37c0 2.036-.843 2.88-2.88 2.88h-2.484v-1.986z" fill="#FEFEFE" mask="url(#j)"/></g><g transform="translate(-40 -42)"><mask id="l" fill="#fff"><use xlink:href="#k"/></mask><path d="M116.174 185.271s3.527 4.27 9.29 4.27c4.321 0 7.748-2.929 7.748-7.098 0-9.73-17.534-7.446-17.534-18.267 0-4.466 3.873-8.488 10.182-8.488 3.03 0 8.99 1.241 8.99 5.56v2.185h-2.135v-1.69c0-2.282-3.18-3.97-6.805-3.97-5.167 0-7.997 3.078-7.997 6.353 0 9.034 17.533 6.701 17.533 18.217 0 5.014-3.873 9.28-10.082 9.28-6.855 0-10.63-4.714-10.63-4.714l1.44-1.638z" fill="#FEFEFE" mask="url(#l)"/></g><g transform="translate(-40 -42)"><mask id="n" fill="#fff"><use xlink:href="#m"/></mask><path d="M161.767 158.27h-10.034c-.744 0-1.09.298-1.09 1.09v2.435h-2.088v-2.83c0-2.034.646-2.682 2.681-2.682h23.197c2.035 0 2.681.648 2.681 2.681v2.831h-2.085v-2.434c0-.793-.347-1.092-1.094-1.092h-10.033v32.76h-2.135v-32.76z" fill="#FEFEFE" mask="url(#n)"/></g><g transform="translate(-40 -42)"><mask id="p" fill="#fff"><use xlink:href="#o"/></mask><path fill="#FEFEFE" mask="url(#p)" d="M190.323 189.044h3.179V158.27h-3.18v-1.986h8.494v1.986h-3.18v30.774h3.18v1.986h-8.493z"/></g><g transform="translate(-40 -42)"><mask id="r" fill="#fff"><use xlink:href="#q"/></mask><path d="M225.237 158.27h-10.034c-.744 0-1.09.298-1.09 1.09v2.435h-2.088v-2.83c0-2.034.646-2.682 2.682-2.682h23.196c2.037 0 2.681.648 2.681 2.681v2.831H238.5v-2.434c0-.793-.347-1.092-1.092-1.092h-10.035v32.76h-2.135v-32.76z" fill="#FEFEFE" mask="url(#r)"/></g><g transform="translate(-40 -42)"><mask id="t" fill="#fff"><use xlink:href="#s"/></mask><path d="M256.375 159.361c0-.745-.397-1.091-1.093-1.091h-2.136v-1.986h2.483c2.038 0 2.883.844 2.883 2.878v20.054c0 6.305 4.022 10.324 10.33 10.324s10.38-4.02 10.38-10.424v-19.954c0-2.034.846-2.878 2.881-2.878h2.484v1.986h-2.135c-.696 0-1.092.346-1.092 1.091v20.004c0 7.395-5.068 12.26-12.469 12.26s-12.516-4.865-12.516-12.26v-20.004z" fill="#FEFEFE" mask="url(#t)"/></g><g transform="translate(-40 -42)"><mask id="v" fill="#fff"><use xlink:href="#u"/></mask><path d="M310.36 158.27h-10.034c-.744 0-1.093.298-1.093 1.09v2.435h-2.085v-2.83c0-2.034.646-2.682 2.681-2.682h23.197c2.037 0 2.68.648 2.68 2.681v2.831h-2.084v-2.434c0-.793-.347-1.092-1.094-1.092h-10.033v32.76h-2.135v-32.76z" fill="#FEFEFE" mask="url(#v)"/></g><g transform="translate(-40 -42)"><mask id="x" fill="#fff"><use xlink:href="#w"/></mask><path d="M341.895 158.27h-3.23v-1.987h19.374c2.035 0 2.878.845 2.878 2.88v2.632h-2.085v-2.434c0-.743-.397-1.092-1.092-1.092h-13.71v14.245h13.858v1.986H344.03v13.452c0 .745.397 1.092 1.093 1.092h14.105c.695 0 1.094-.347 1.094-1.092v-2.432h2.085v2.631c0 2.034-.843 2.879-2.88 2.879h-14.753c-2.035 0-2.88-.845-2.88-2.879V158.27z" fill="#FEFEFE" mask="url(#x)"/></g><g transform="translate(-40 -42)"><mask id="z" fill="#fff"><use xlink:href="#y"/></mask><path d="M371.877 62.655c.528 0 .849-.332.849-.878 0-.56-.321-.863-.831-.863h-.768v1.741h.75zm-2.11-1.74h-.51v-.993h2.94c1.153 0 1.92.734 1.92 1.855 0 .912-.622 1.406-1.04 1.518v.034s.207.046.368.317l.51.96c.116.193.242.193.355.193h.174v.976h-.766c-.434 0-.641-.082-.833-.434l-.785-1.47c-.124-.24-.301-.257-.524-.257h-.449v2.161h-1.36v-4.86zm2 6.535c2.464 0 4.35-2.012 4.35-4.57 0-2.543-1.886-4.557-4.35-4.557-2.416 0-4.288 2.014-4.288 4.558 0 2.557 1.872 4.57 4.288 4.57zm0-10.422c3.195 0 5.759 2.606 5.759 5.853 0 3.245-2.564 5.864-5.759 5.864-3.15 0-5.709-2.62-5.709-5.864 0-3.247 2.56-5.853 5.709-5.853z" fill="#FEFEFE" mask="url(#z)"/></g></g></svg>
