<svg viewBox="0 0 349 53" xmlns="http://www.w3.org/2000/svg"><title>cybex-logo</title><path d="M126.236.334C65.858-1.24 20.334 7.544 18.316 22.346c-1.058 7.592 26.15 20.675 42.639 23.635-14.71 2.865-34.371 4.393-58.936 4.345L.337 51.568c66.242 3.437 112.199-2.197 114.122-18.097 1.25-10.313-33.65-22.203-33.65-22.203l-1.443.335s13.22 6.207 13.22 14.372c0 8.642-9.903 15.327-29.18 19.48-12.883-4.583-20.478-10.217-20.334-16.329.24-14.229 29.949-25.354 82.347-26.834l.817-1.958zm13.797 41.589c1.778 0 3.701-1.433 4.278-3.2l1.154-3.533h12.066l-5.288 16.043h-37.736L131.38.143h37.736l-4.47 13.513h-12.067l.145-.478c.576-1.766-.385-3.199-2.164-3.199h-5.528l-.096-.047c-1.779 0-3.702 1.527-4.23 3.199l-8.461 25.592c-.577 1.672.433 3.2 2.211 3.2h5.577zM170.222.239h13.508l2.836 16.568L198.824.24h14.133l-23.795 32.038-6.01 18.956h-13.17l5.768-18.956zm112.007 41.349h-20.142s-3.99-.143-2.789-3.82l2.452-7.353h21.632l3.125-9.501h-21.632s1.25-3.82 2.596-7.831c1.297-3.915 5.191-3.533 5.191-3.533h17.594L293.43 0h-35.236L241.32 51.09h37.736l3.173-9.502zm25.814-6.207c-.337 0-.529.43-.913.955L297.035 51.09h-15.72l17.787-25.736L297.179 0h13.844l1.01 13.847c0 .239 0 .62.144.62s.192-.19.385-.43L322.512 0h15.96l-17.498 23.683 2.5 27.407H309.87l-1.442-14.658c-.097-.669-.145-1.05-.385-1.05zm-84.03 6.16c1.731 0 4.52-1.29 5.337-3.152l.961-2.721c1.058-3.39 2.404-5.826-2.596-5.826h-9.037l-3.894 11.699h9.23zM242.57 0c6.875 0 9.086 4.823 7.307 10.218l-2.884 8.404c-1.779 4.822-7.21 6.016-7.21 6.016 6.489 1.146 4.037 7.162 4.037 7.162-.673 2.435-1.105 3.82-1.875 6.255-1.105 3.39-1.97 6.16-3.028 8.642-1.01 2.34-4.278 4.345-8.701 4.345l-32.352.048L214.688 0h27.881zm-10.671 9.55h-6.586l-3.654 11.125h6.346c4.855.19 6.922-1.862 8.028-5.252l1.01-2.77c.576-1.719-.049-3.103-1.395-3.103h-3.75zm112.438-5.682c.625 0 1.154-.048 1.442-.764.192-.573-.288-.717-.817-.717h-1.01l-.48 1.48h.865zm-1.779 2.673h-.72l1.586-4.774h1.826c1.106 0 1.539.43 1.25 1.337-.288.86-.961 1.241-1.682 1.289l.673 2.1h-.817l-.577-2.052h-.818l-.72 2.1zm.53 1.099c1.874 0 3.845-1.48 4.518-3.438.625-1.958-.337-3.438-2.211-3.438-1.875 0-3.846 1.48-4.52 3.438-.672 1.957.337 3.438 2.212 3.438zm-3.077-3.486c.769-2.387 3.268-4.106 5.576-4.106 2.26 0 3.605 1.766 2.836 4.106-.769 2.387-3.317 4.154-5.576 4.154-2.26 0-3.606-1.767-2.836-4.154z" fill="#FFF" fill-rule="evenodd"/></svg>
