<?xml version="1.0" encoding="UTF-8"?>
<svg xmlns="http://www.w3.org/2000/svg" xmlns:xlink="http://www.w3.org/1999/xlink" viewBox="0 0 81 30">
  <!-- Generator: Sketch 47.1 (45422) - http://www.bohemiancoding.com/sketch -->
  <title>Group 10</title>
  <desc>Created with Sketch.</desc>
  <defs>
    <polygon id="path-1" points="0 11.7960876 0 0.00385895884 14.9090513 0.00385895884 14.9090513 23.5883163 0 23.5883163"></polygon>
  </defs>
  <g id="Page-1" stroke="none" stroke-width="1" fill="none" fill-rule="evenodd">
    <g id="Sticky-header" transform="translate(-120.000000, -10.000000)">
      <g id="Group-10" transform="translate(120.000000, 10.000000)">
        <g id="Group-8">
          <g id="Page-1">
            <g id="Group-3" transform="translate(0.000000, 0.041596)">
              <mask id="mask-2" fill="white">
                <use xlink:href="#path-1"></use>
              </mask>
              <g id="Clip-2"></g>
              <path d="M0,19.8873296 L3.084537,16.7291395 C3.41930143,17.3644331 4.01826721,17.8939367 4.87869932,18.3165427 C5.67622635,18.7192091 6.46281337,18.9202654 7.23955438,18.9202654 C8.07865347,18.9202654 8.78100238,18.7607497 9.34824211,18.442826 C10.060984,18.0390518 10.4181755,17.4452987 10.4181755,16.6587975 C10.4181755,15.7465669 9.58126441,14.9290487 7.90853625,14.2073508 C5.27199283,13.0818786 3.7021008,12.3391335 3.20050115,11.9780076 C1.50534595,10.7683465 0.658588853,9.12278662 0.658588853,7.04188166 C0.658588853,4.98202391 1.33522873,3.29492343 2.68796148,1.97836471 C4.04069423,0.662359867 5.73420843,0.00380357143 7.76795706,0.00380357143 C9.15186886,0.00380357143 10.4728756,0.291264225 11.7320712,0.863970036 C13.115436,1.47987803 14.1749764,2.32952088 14.9090513,3.41234473 L11.9798625,6.59767464 C11.7271482,5.95905781 11.1396694,5.42733868 10.2163322,5.0014095 C9.4182582,4.66133081 8.62018417,4.49073759 7.82320414,4.49073759 C7.08803518,4.49073759 6.46828338,4.70841011 5.96504273,5.14430902 C5.46070807,5.58020793 5.20908775,6.15956023 5.20908775,6.88181205 C5.20908775,7.77465708 6.03834082,8.49746277 7.69684697,9.05022912 C10.1534272,9.85833142 11.7178492,10.5163338 12.3895661,11.025898 C14.0688582,12.2804228 14.9090513,14.2145512 14.9090513,16.8293907 C14.9090513,18.7845663 14.1684124,20.4007709 12.6871344,21.675789 C11.2053095,22.9508072 9.48772729,23.5883163 7.53329376,23.5883163 C6.10343391,23.5883163 4.69654808,23.2703926 3.30990129,22.6317757 C1.83846938,21.9516183 0.735168952,21.0366183 0,19.8873296" id="Fill-1" fill="#FFFFFF" mask="url(#mask-2)"></path>
            </g>
            <path d="M19.6280811,14.4126165 L19.6280811,14.9864301 L27.0328297,10.6850439 C26.1789616,9.97830054 25.3043075,9.62492887 24.4088673,9.62492887 C23.1589707,9.62492887 22.0551233,10.10403 21.096778,11.0611244 C20.0547417,12.1040693 19.565176,13.2206795 19.6280811,14.4126165 M24.8027078,19.8106734 C25.5154498,19.8106734 26.3594718,19.6079555 27.3342271,19.2014119 C28.3089824,18.7959761 29.0474333,18.3357067 29.550674,17.8222654 L30.9663118,21.7071383 C30.1901178,22.3446474 29.1989525,22.8647352 27.992816,23.2679555 C26.7861324,23.6717297 25.6587639,23.872786 24.6101636,23.872786 C22.1973435,23.872786 20.1307748,23.0552679 18.4110046,21.4196777 C16.6277822,19.764148 15.7361711,17.7253375 15.7361711,15.3037999 C15.7361711,12.7559791 16.5107241,10.5371595 18.0620181,8.64623335 C19.6964562,6.67222609 21.7498969,5.68411471 24.2234341,5.68411471 C26.0050154,5.68411471 27.6334365,6.2230342 29.1108854,7.30087318 C30.5883343,8.37926604 31.6205247,9.76228965 32.2080034,11.4521595 L20.9348658,18.2803193 C22.0671573,19.3005554 23.356438,19.8106734 24.8027078,19.8106734" id="Fill-4" fill="#FFFFFF"></path>
            <path d="M36.9035122,12.8249918 C36.9035122,13.7532848 37.2508577,14.5226159 37.9466426,15.1346468 C38.6418805,15.7466777 39.4563645,16.0513084 40.3906417,16.0513084 C41.344611,16.0513084 42.170035,15.7511087 42.8658199,15.1507091 C43.5610578,14.5503096 43.9089503,13.774332 43.9089503,12.8249918 C43.9089503,11.8756516 43.5610578,11.0858272 42.8658199,10.4527491 C42.170035,9.82022488 41.344611,9.5034089 40.3906417,9.5034089 C39.4563645,9.5034089 38.6418805,9.82022488 37.9466426,10.4527491 C37.2508577,11.0858272 36.9035122,11.8756516 36.9035122,12.8249918 L36.9035122,12.8249918 Z M46.8654891,9.20265527 C47.6887252,10.2217836 48.1000697,11.3566716 48.1000697,12.6089809 C48.1000697,15.1573556 47.0066153,16.9192291 44.8191595,17.8951553 C47.1264085,19.1485723 48.2800329,20.9957424 48.2800329,23.4361117 C48.2800329,25.3890717 47.4589849,26.9919834 45.8157948,28.2442927 C44.3208418,29.4113054 42.5726276,29.9961964 40.572793,29.9961964 C38.9503889,29.9961964 37.4133169,29.6871347 35.960483,29.0717806 C34.3380789,28.3910693 33.0958403,27.4450524 32.2332202,26.2342836 L35.0737948,23.5574101 C36.1037972,25.383533 37.7229193,26.2979791 39.9328021,26.2979791 C40.9206854,26.2979791 41.8051856,26.0409815 42.5835676,25.5292019 C43.4669737,24.9315717 43.9089503,24.1633484 43.9089503,23.2245318 C43.9089503,22.1145681 43.5244088,21.2078762 42.7553258,20.5027945 C41.9867898,19.7993744 41.0547006,19.4465566 39.9590582,19.4465566 C38.6325814,19.4465566 37.2524987,19.8193139 35.8199038,20.5615051 L36.764027,18.3338235 C35.6601796,17.8458605 34.7477824,17.0975766 34.0295705,16.0895257 C33.3108116,15.0814749 32.9514321,13.9825887 32.9514321,12.7939749 C32.9514321,10.7352249 33.4962448,9.17496156 34.5853232,8.1137388 C35.5901635,7.13836653 37.1195775,6.52245854 39.1724711,6.26767645 C40.0520483,6.16133263 41.8106556,6.10871459 44.449387,6.10871459 C46.1675162,6.10871459 47.9480035,5.86611774 49.7908489,5.38092403 L49.0042619,9.16997669 L46.8654891,9.20265527 Z" id="Fill-6" fill="#FFFFFF"></path>
            <path d="M60.1213402,21.0722878 C59.6394326,21.8394035 58.9595107,22.4580808 58.0810275,22.9272122 C57.2014504,23.3957896 56.3125743,23.6300784 55.4127581,23.6300784 C53.8636521,23.6300784 52.6443875,23.1354688 51.7555114,22.1456958 C50.8660882,21.1553689 50.4213766,19.8626268 50.4213766,18.2652539 L50.4213766,6.16310502 L54.4932499,5.68400393 L54.4932499,17.011283 C54.4932499,18.6756746 55.2338889,19.5070396 56.7179018,19.5070396 C57.677888,19.5070396 58.460646,19.1038193 59.0672698,18.2946093 C59.6098945,17.5502025 59.8817539,16.6662194 59.8817539,15.6448756 L59.8817539,6.16642827 L64.0132502,5.62363166 L64.0132502,22.9033956 L60.1213402,23.50878 L60.1213402,21.0722878 Z" id="Fill-8" fill="#FFFFFF"></path>
            <path d="M68.4000318,14.4126165 L68.4000318,14.9864301 L75.8047804,10.6850439 C74.9509123,9.97830054 74.0762582,9.62492887 73.180818,9.62492887 C71.9309214,9.62492887 70.827074,10.10403 69.8692757,11.0611244 C68.8266924,12.1040693 68.3371267,13.2206795 68.4000318,14.4126165 M73.5746585,19.8106734 C74.2874004,19.8106734 75.1314225,19.6079555 76.1061778,19.2014119 C77.0809331,18.7959761 77.819384,18.3357067 78.3226247,17.8222654 L79.7382625,21.7071383 C78.9615215,22.3446474 77.9709032,22.8647352 76.7647667,23.2679555 C75.5580831,23.6717297 74.4307146,23.872786 73.3821143,23.872786 C70.9692941,23.872786 68.9027255,23.0552679 67.1829552,21.4196777 C65.4002799,19.764148 64.5081218,17.7253375 64.5081218,15.3037999 C64.5081218,12.7559791 65.2826748,10.5371595 66.8339688,8.64623335 C68.4684069,6.67222609 70.5218476,5.68411471 72.9953848,5.68411471 C74.7769661,5.68411471 76.4059342,6.2230342 77.8828361,7.30087318 C79.360285,8.37926604 80.3919284,9.76228965 80.9799541,11.4521595 L69.7073635,18.2803193 C70.839108,19.3005554 72.1283886,19.8106734 73.5746585,19.8106734" id="Fill-10" fill="#FFFFFF"></path>
          </g>
        </g>
      </g>
    </g>
  </g>
</svg>
