<svg viewBox="0 0 384 82" xmlns="http://www.w3.org/2000/svg"><title>hewlitt-logo</title><g fill="#FFF" fill-rule="evenodd"><path d="M34.117 81.746h2.468V65.781h21.74v-2.467H34.118v18.432zm-6.17 0h2.468V48.003h3.702v11.61h24.209v-2.467H36.549v-9.143h21.74v-2.468H36.55v-3.737h21.74v-2.467H27.948v42.415zm2.432-39.911h3.738v3.737H30.38v-3.737zM71.936 32.4l1.634-6.35 1.633 6.35h1.706l2.976-10.631h-2.032l-1.779 6.821-1.742-6.821h-1.488l-1.779 6.857-1.705-6.857h-2.07l2.977 10.63h1.67zm15.535-10.63h-1.997V32.4h1.997V21.77zm11.433 8.744h-3.521V21.77h-1.996V32.4h5.517v-1.886zm10.707 0h-3.521V21.77h-1.996V32.4h5.517v-1.886zm7.15-8.744h-1.997V32.4h1.997V21.77zm8.057 7.656h3.267l1.125 2.975h2.141l-3.956-10.45-.073-.181h-1.67l-4.064 10.63h2.105l1.125-2.974zm1.67-4.717l.943 2.83h-1.887l.944-2.83zm15.498 4.354l-2.868-7.293h-2.758V32.4h1.996v-7.51l3.013 7.51h1.234l3.012-7.546v7.547h1.996V21.77h-2.758l-2.867 7.293zm34.879-1.052h3.63v-1.887h-3.63V23.62h3.63v-1.85h-5.626V32.4h1.996v-4.39zm11.433-6.241h-1.996V32.4h5.517v-1.886h-3.521V21.77zm19.2 5.334c0-3.085-2.432-5.516-5.517-5.516a5.513 5.513 0 0 0-5.517 5.516 5.513 5.513 0 0 0 5.517 5.515c3.013-.037 5.517-2.504 5.517-5.515zm-9.038-.037c0-1.524 1.09-3.628 3.521-3.628 2.432 0 3.52 2.14 3.52 3.665 0 1.487-1.088 3.592-3.52 3.592s-3.52-2.105-3.52-3.629zm21.487 5.334l-2.867-3.81c1.016-.181 2.686-.98 2.686-3.302 0-1.016-.363-1.959-1.017-2.576-.653-.653-1.56-.907-2.867-.907h-3.375v10.631h1.996v-4.209l2.976 4.173h2.468zm-5.48-5.406v-3.338h1.306c1.452 0 1.996.834 1.996 1.632 0 1.125-.834 1.706-2.54 1.706h-.762zm13.719 2.43h3.267l1.125 2.976h2.141l-3.956-10.45-.073-.181h-1.67l-4.028 10.63h2.105l1.089-2.974zm1.67-4.716l.943 2.83h-1.887l.944-2.83zM86.2 51.486H73.134v-11.43h-2.976v25.87h2.976V54.208H86.2v11.72h2.977v-25.87H86.2v11.429zm16.043-5.152c-5.59.108-10.163 4.716-10.163 10.304 0 5.624 4.573 9.76 10.199 9.76 4.32 0 8.203-2.286 9.618-6.386l.073-.254h-3.013l-.036.11c-.726 1.995-2.94 4.317-6.715 4.39-3.63 0-6.968-3.048-7.222-6.568h17.458v-.181c.145-2.322-.363-4.39-1.489-6.168-1.342-2.395-4.391-4.971-8.71-5.007zm-7.223 8.78c.726-4.064 4.174-6.168 7.259-6.168 2.94 0 6.46 1.923 7.295 6.168H95.02zm37.093 7.474l-4.319-13.46h-2.431l-4.283 13.46-5.88-15.638-.036-.108h-2.976l7.404 18.976.036.109h3.049l3.883-11.974 3.956 11.974h3.05l7.476-19.122h-2.94l-5.989 15.783zm11.143 3.339h2.831v-25.87h-2.831v25.87zm15.534-19.593c-5.59.108-10.162 4.716-10.162 10.304 0 5.624 4.573 9.76 10.198 9.76 4.32 0 8.203-2.286 9.619-6.386l.072-.254h-3.012v.11c-.726 1.995-2.94 4.317-6.715 4.39-3.63 0-6.968-3.048-7.223-6.568h17.458v-.181c.146-2.322-.363-4.39-1.488-6.168a10.174 10.174 0 0 0-8.747-5.007zm-7.223 8.78c.726-4.064 4.174-6.168 7.26-6.168 2.94 0 6.46 1.923 7.295 6.168h-14.555zm35.025-15.057h-2.83v6.748h-7.66V40.02h-2.83v6.785h-4.029v2.613h4.029v16.509h2.83v-16.51h7.66v16.51h2.83v-16.51h4.61v-2.612h-4.61v-6.748zm151.24 25.87h2.832V46.334h-2.831v19.593zm-7.403-26.342h-2.831v6.785h-4.029v2.612h4.029v16.98h2.83v-16.98h4.61V46.37h-4.61v-6.785zm50.958 8.672c-1.67-1.67-3.593-2.395-6.207-2.395-2.758 0-4.718 1.306-5.77 2.649V46.37h-2.832v19.593h2.831V55.187c-.036-2.177.581-4.028 1.743-5.116 1.524-1.488 3.484-1.597 4.028-1.597.545 0 2.505.11 4.03 1.597 1.124 1.088 1.778 2.939 1.778 5.116v10.74h2.83v-10.74c0-2.975-.834-5.37-2.431-6.93zm-43.554-3.883h2.83v-4.789h-2.83v4.79zm-19.418 5.007c-2.286-3.193-5.88-3.52-7.368-3.52-6.57 0-10.525 5.19-10.525 10.233 0 5.769 4.61 10.304 10.525 10.304 1.452 0 5.009-.363 7.368-3.52v3.049h2.831V46.334h-2.83v3.047zm-7.331 14.405c-4.356 0-7.659-3.266-7.659-7.583 0-5.08 3.848-7.729 7.659-7.729 4.137 0 7.476 3.447 7.476 7.692 0 4.282-3.303 7.62-7.476 7.62zm42.828-17.924c-4.9 0-10.2 3.991-10.2 10.413 0 5.479 4.683 10.123 10.2 10.123 5.553 0 10.271-4.717 10.271-10.268-.036-5.588-4.718-10.268-10.271-10.268zm.036 17.924c-4.065 0-7.404-3.41-7.404-7.547 0-4.79 3.847-7.765 7.404-7.765 2.976 0 7.404 2.395 7.404 7.547-.036 4.862-3.775 7.765-7.404 7.765zM225.1 45.862c-4.9 0-10.199 3.991-10.199 10.413 0 5.479 4.682 10.123 10.199 10.123 5.553 0 10.271-4.717 10.271-10.268 0-5.588-4.718-10.268-10.271-10.268zm.036 17.924c-4.065 0-7.404-3.41-7.404-7.547 0-4.79 3.847-7.765 7.404-7.765 2.976 0 7.404 2.395 7.404 7.547-.036 4.862-3.774 7.765-7.404 7.765zm-25.515 2.14h2.976V54.063h10.163V51.34h-10.163v-9.035h10.526v-2.721h-13.502v26.342zm96.036-16.58c-2.468-3.23-6.242-3.484-7.368-3.484-6.569 0-10.525 5.188-10.525 10.232 0 5.769 4.61 10.304 10.525 10.304 2.323 0 5.408-.943 7.368-3.52v3.049h2.831V39.585h-2.83v9.76zm-7.331 14.44c-4.356 0-7.659-3.266-7.659-7.583 0-5.08 3.848-7.729 7.659-7.729 4.137 0 7.476 3.447 7.476 7.692 0 4.282-3.302 7.62-7.476 7.62zm-36.332-7.112c0 3.411-.907 4.608-1.96 5.624-1.016 1.016-2.286 1.488-3.92 1.488-1.814 0-3.266-.58-4.318-1.742-.908-1.125-1.343-2.721-1.343-4.934V46.37h-2.831v10.776c0 2.758.58 4.898 1.742 6.313.87 1.089 2.94 2.94 6.75 2.94 3.558 0 5.3-1.924 6.026-3.012v2.576h2.685V46.37h-2.83v10.304zm14.918-10.812c-2.759 0-4.719 1.306-5.771 2.649V46.37h-2.831v19.593h2.83V55.187c-.036-2.177.581-4.028 1.743-5.116 1.524-1.488 3.484-1.597 4.029-1.597.544 0 2.504.11 4.028 1.597 1.126 1.088 1.779 2.939 1.779 5.116v10.74h2.83v-10.74c0-2.975-.834-5.334-2.43-6.894-1.67-1.705-3.594-2.431-6.207-2.431z"/><path d="M0 45.5h2.468V0H0v45.5zm34.117-25.69H30.38V0h-2.432v19.81H8.566V0H6.098v22.278h21.85v3.7H6.17v19.485h2.468V28.41h19.31v10.92h2.467V28.446h3.702v10.921h2.468V.037h-2.468V19.81zm0 6.169H30.38v-3.701h3.738v3.7zm127.903.145v-2.758h-1.96v2.758h-2.722v1.96h2.722v2.757h1.96v-2.758h2.723v-1.96h-2.723z"/></g></svg>
