<svg viewBox="0 0 336 151" xmlns="http://www.w3.org/2000/svg"><title>parx-logo</title><g fill="#FFF" fill-rule="evenodd"><path d="M222.096 65.098h13.188v13.171h-13.188zm-97.44 85.818c-4.032 0-7.224-.923-9.912-3.44l2.352-2.348c1.932 2.013 4.536 2.768 7.476 2.768 3.948 0 6.384-1.426 6.384-4.278 0-2.097-1.26-3.272-4.032-3.524l-3.948-.335c-4.704-.42-7.224-2.517-7.224-6.46 0-4.362 3.696-7.046 8.82-7.046 3.444 0 6.468.839 8.652 2.6l-2.268 2.265c-1.68-1.342-3.948-1.93-6.384-1.93-3.528 0-5.376 1.51-5.376 3.944 0 2.013 1.176 3.271 4.2 3.523l3.864.336c4.2.419 7.056 2.013 7.056 6.459.168 4.782-3.78 7.466-9.66 7.466zm32.256-2.768c-1.68 1.678-3.948 2.768-6.888 2.768s-5.208-1.09-6.888-2.768c-2.436-2.517-2.94-5.872-2.94-9.564 0-3.69.504-7.046 2.94-9.563 1.68-1.678 3.948-2.768 6.888-2.768s5.208 1.09 6.888 2.768c2.436 2.517 2.94 5.872 2.94 9.563 0 3.775-.504 7.131-2.94 9.564zm-2.52-16.946c-1.092-1.09-2.688-1.761-4.368-1.761-1.68 0-3.192.67-4.368 1.761-1.764 1.762-1.932 4.698-1.932 7.382 0 2.685.168 5.705 1.932 7.383 1.092 1.09 2.604 1.761 4.368 1.761 1.68 0 3.276-.67 4.368-1.761 1.764-1.762 1.932-4.698 1.932-7.383 0-2.684-.168-5.62-1.932-7.382zm18.648 19.378c-4.2 0-6.132-2.768-6.132-6.375v-28.354h3.528v28.186c0 2.35.756 3.524 3.192 3.524h1.932v3.02h-2.52zm23.268 0v-2.684c-1.68 1.93-4.116 3.02-6.804 3.02-2.604 0-4.704-.755-6.216-2.265-1.68-1.678-2.436-3.943-2.436-6.711v-15.352h3.528v14.765c0 4.278 2.268 6.375 5.88 6.375s6.048-2.18 6.048-6.375v-14.765h3.528v23.993h-3.528zm18.816 0c-4.116 0-6.132-2.852-6.132-6.459v-14.764h-3.024v-2.685h3.024v-7.55h3.528v7.55h5.124v2.685h-5.124v14.68c0 2.181 1.008 3.524 3.276 3.524h1.848v3.02h-2.52zm8.736-30.787v-4.026h3.948v3.942h-3.948v.084zm.252 30.788v-23.993h3.528v23.993h-3.528zm27.3-2.433c-1.68 1.678-3.948 2.768-6.888 2.768s-5.208-1.09-6.888-2.768c-2.436-2.517-2.94-5.872-2.94-9.564 0-3.69.504-7.046 2.94-9.563 1.68-1.678 3.948-2.768 6.888-2.768s5.208 1.09 6.888 2.768c2.436 2.517 2.94 5.872 2.94 9.563 0 3.775-.504 7.131-2.94 9.564zm-2.52-16.946c-1.092-1.09-2.688-1.761-4.368-1.761-1.68 0-3.192.67-4.368 1.761-1.764 1.762-1.932 4.698-1.932 7.382 0 2.685.168 5.705 1.932 7.383 1.092 1.09 2.604 1.761 4.368 1.761 1.68 0 3.276-.67 4.368-1.761 1.764-1.762 1.932-4.698 1.932-7.383 0-2.684-.168-5.62-1.932-7.382zm28.056 19.378v-14.764c0-4.278-2.268-6.375-5.88-6.375s-5.964 2.18-5.964 6.375v14.765h-3.528v-23.993h3.528v2.6c1.68-1.929 4.032-2.935 6.72-2.935 2.604 0 4.704.755 6.132 2.265 1.68 1.678 2.52 3.943 2.52 6.71v15.353h-3.528zm19.572.336c-4.032 0-7.224-.923-9.912-3.44l2.352-2.348c1.932 2.013 4.536 2.768 7.476 2.768 3.948 0 6.384-1.426 6.384-4.278 0-2.097-1.26-3.272-4.032-3.524l-3.948-.335c-4.704-.42-7.224-2.517-7.224-6.46 0-4.362 3.696-7.046 8.82-7.046 3.444 0 6.468.839 8.652 2.6l-2.268 2.265c-1.68-1.342-3.948-1.93-6.384-1.93-3.528 0-5.376 1.51-5.376 3.944 0 2.013 1.176 3.271 4.2 3.523l3.864.336c4.2.419 7.056 2.013 7.056 6.459.084 4.782-3.864 7.466-9.66 7.466zm12.18-20.301c0-.587.084-1.174.336-1.678.252-.503.504-1.006.924-1.342.42-.42.84-.671 1.344-.923.504-.251 1.092-.335 1.68-.335.588 0 1.176.084 1.68.335.504.252 1.008.504 1.344.923.42.42.672.839.924 1.342.252.504.336 1.09.336 1.678 0 .587-.084 1.174-.336 1.678-.252.503-.504 1.006-.924 1.342-.42.336-.84.671-1.344.923-.504.251-1.092.335-1.68.335-.588 0-1.176-.084-1.68-.335-.504-.252-1.008-.504-1.344-.923-.42-.42-.672-.839-.924-1.342-.252-.504-.336-1.09-.336-1.678zm4.284 3.859c.504 0 1.008-.084 1.512-.336.42-.167.84-.503 1.176-.839.336-.335.588-.755.756-1.174.168-.503.252-.923.252-1.51 0-.503-.084-1.007-.252-1.51-.168-.503-.42-.839-.756-1.174-.336-.336-.756-.588-1.176-.84-.42-.167-.924-.335-1.512-.335s-1.008.084-1.512.336c-.42.167-.84.503-1.176.839a3.518 3.518 0 0 0-.756 1.174 4.382 4.382 0 0 0-.252 1.51c0 .503.084 1.007.252 1.51.168.503.42.839.756 1.174.336.336.756.588 1.176.84.504.167 1.008.335 1.512.335zm-1.344-6.124h1.512c.504 0 .84.168 1.092.42.252.251.336.587.336.922 0 .336-.084.587-.252.84-.168.25-.42.419-.756.502l1.092 1.93h-.504l-1.092-1.846h-.924v1.846h-.504v-4.614zm1.512 2.265c.336 0 .504-.084.672-.252.168-.167.252-.42.252-.67 0-.588-.336-.84-1.092-.84h-.84v1.762h1.008zM30.66 79.275H14.364v26.341H0V23.741h32.34c19.068 0 31.164 10.737 31.164 27.515C63.42 69.712 48.72 79.275 30.66 79.275zm.504-42.448h-16.8v29.445H31.08c10.92 0 17.64-5.956 17.64-14.764.084-9.647-6.804-14.68-17.556-14.68zm107.604 68.789H123.48l-8.316-19.798H76.44l-8.4 19.798H53.256l36.036-82.463h13.356l36.12 82.463zM95.76 40.351L81.732 73.067h28.224L95.76 40.351zm103.74 65.265l-20.16-28.522h-18.06v28.522h-14.364V23.741h36.54c18.816 0 30.408 9.898 30.408 25.921 0 13.59-8.064 21.727-19.572 24.915l22.092 30.955H199.5v.084zm-17.22-68.789h-20.916v27.516h21.084c10.332 0 16.884-5.37 16.884-13.758-.084-9.06-6.384-13.758-17.052-13.758z"/><path d="M336 0h-16.968L266.7 62.162l-18.312-21.56h-16.884l26.712 31.626-28.056 33.388h16.968l19.656-23.321 19.74 23.321h17.052l-28.308-33.388z"/></g></svg>
