<svg viewBox="0 0 287 144" xmlns="http://www.w3.org/2000/svg"><title>Page 1</title><path d="M73.763 66.966a7.327 7.327 0 0 0 7.329-7.342 7.324 7.324 0 0 0-7.329-7.329c-4.052 0-7.341 3.277-7.341 7.329a7.337 7.337 0 0 0 7.341 7.342zm-15.71-34.457c-17.464 0-31.844 12.191-31.844 30.284 0 15.214 9.167 26.075 22.834 28.154v21.166h28.446V91.77h3.955c4.62-.436 7.74-3.483 7.789-7.777V72.227h7.752L79.351 32.509H58.053zm54.787 39.718h7.752l-17.416-39.718H91.771l17.476 39.718h-7.958v10.546c.024 6.386-2.661 9.119-11.345 8.998v20.343h11.308V91.771h3.737c3.302.097 7.789-2.588 7.849-7.813V72.227h.002zM0 71.718C0 32.098 32.111 0 71.719 0s71.719 32.098 71.719 71.718c0 39.597-32.11 71.707-71.719 71.707C32.11 143.425 0 111.315 0 71.718zm177.677-2.793h6.35c5.395 0 8.346-3.35 8.346-7.511 0-4.293-3.096-7.522-8.346-7.522h-6.35v15.033zm-9.519-15.021h-6.579v-8.14h21.758c11.792 0 18.553 6.083 18.553 15.65 0 9.748-7.063 15.687-18.25 15.687-.932.013-5.963 0-5.963 0v12.385h7.705v8.188h-23.887v-8.188h6.663V53.904zm52.538 12.638h5.685c4.281 0 7.172-2.54 7.172-6.338 0-3.749-2.867-6.3-7.172-6.3h-5.685v12.638zm0 22.944h6.059c4.995 0 8.381-2.746 8.381-7.391 0-3.942-2.635-7.365-8.381-7.365h-6.059v14.756zm-9.518-35.582h-5.974v-8.14h20.861c12.918 0 17.029 7.728 17.029 13.364 0 4.777-2.54 8.623-6.253 10.437 5.213 2.177 8.151 7.548 8.151 12.239 0 11.309-8.877 15.868-17.379 15.868h-23.087v-8.188h6.651v-35.58h.001zm64.425-.109c-1.692-.653-3.918-1.246-6.155-1.246-6.361 0-8.395 3.688-8.395 6.567 0 3.75 2.432 4.861 5.455 5.672l5.49 1.549c6.762 1.923 14.235 4.413 14.235 15.105 0 9.797-5.902 16.944-18.951 16.944-5.056 0-10.304-.593-16.461-2.867V81.877h9.579v6.772c2.419 1.113 5.056 1.343 7.74 1.343 5.636 0 8.127-3.035 8.127-6.941 0-2.648-1.317-4.56-7.475-6.325l-5.055-1.476c-9.446-2.722-12.649-6.857-12.649-14.803 0-8.2 5.115-15.408 18.092-15.408 5.588 0 11.15 1.016 15.082 2.721v12.312h-8.66v-6.277h.001z" fill="#FFF" fill-rule="evenodd"/></svg>
