<?xml version="1.0" encoding="UTF-8"?>
<svg xmlns="http://www.w3.org/2000/svg" xmlns:xlink="http://www.w3.org/1999/xlink" viewBox="0 0 180 50">
  <!-- Generator: Sketch 49.1 (51147) - http://www.bohemiancoding.com/sketch -->
  <title>sf-logo-h-color</title>
  <desc>Created with Sketch.</desc>
  <defs></defs>
  <g id="Page-1" stroke="none" stroke-width="1" fill="none" fill-rule="evenodd">
    <g id="sf-logo-h-color" fill="#FFFFFF" fill-rule="nonzero">
      <polygon id="Shape" points="25 6.25 25 0 0 6.7 0 22.32 18.75 17.32 18.75 20.45 0 25.45 0 31.7 25 25 25 9.38 6.25 14.38 6.25 11.27"></polygon>
      <polygon id="Shape" points="6.25 33.15 0 34.82 0 40.62 6.25 40.62"></polygon>
      <polygon id="Shape" points="15.63 30.64 9.38 32.3 9.38 45.3 15.63 45.3"></polygon>
      <polygon id="Shape" points="25 50 18.75 50 18.75 29.8 25 28.12"></polygon>
      <path d="M50.45,28.1 C50.45,30.65 48.51,32.3 45.5,32.3 C43.273575,32.4299118 41.1728362,31.2606695 40.11,29.3 L40,29 L42.74,27.41 L42.87,27.63 C43.3410322,28.6131769 44.3398972,29.2335657 45.43,29.22 C46.43,29.22 47.09,28.77 47.09,28.09 C47.09,27.41 46.51,27.03 45.19,26.45 L44.49,26.15 C42.64,25.37 40.94,24.28 40.94,21.65 C40.94,19.29 42.75,17.65 45.34,17.65 C47.1075571,17.5350786 48.775603,18.4770339 49.59,20.05 L49.71,20.27 L47.06,22 L46.92,21.76 C46.6735242,21.0985639 46.0357145,20.6653347 45.33,20.68 C45.0580575,20.6551359 44.7877759,20.7425647 44.5819141,20.9219856 C44.3760522,21.1014065 44.2525195,21.3572103 44.24,21.63 C44.24,22.31 44.63,22.63 45.82,23.11 L46.53,23.41 C48.95,24.45 50.45,25.6 50.45,28.1 Z M57.78,17.72 L57.78,32.12 L61,32.12 L61,26.71 C61,26.42 61,26.06 61,25.63 L61,25.21 L61.25,25.55 C61.51,25.9 61.75,26.19 61.96,26.42 L64.76,29.56 L65.26,29.56 L68,26.42 C68.2,26.19 68.44,25.9 68.7,25.55 L68.95,25.21 L68.95,25.63 C68.95,26.06 68.95,26.42 68.95,26.71 L68.95,32.12 L72.2,32.12 L72.2,17.72 L71.58,17.72 L65,25 L58.35,17.7 L57.78,17.72 Z M92.42,32.12 L88.87,32.12 L88.22,30.56 L83,30.56 L82.35,32.12 L79,32.12 L85.27,17.74 L85.85,17.74 L92.42,32.12 Z M87,27.68 L86.16,25.68 C86.02,25.35 85.87,24.93 85.71,24.44 L85.57,24 L85.45,24.38 C85.29,24.88 85.14,25.3 85,25.62 L84.16,27.62 L87,27.68 Z M104.42,23.42 L103.71,23.12 C102.53,22.61 102.13,22.32 102.13,21.64 C102.14252,21.3672103 102.266052,21.1114065 102.471914,20.9319856 C102.677776,20.7525647 102.948057,20.6651359 103.22,20.69 C103.925714,20.6753347 104.563524,21.1085639 104.81,21.77 L104.95,22.01 L107.6,20.31 L107.48,20.09 C106.665603,18.5170339 104.997557,17.5750786 103.23,17.69 C100.64,17.69 98.83,19.33 98.83,21.69 C98.83,24.32 100.54,25.41 102.38,26.19 L103.08,26.49 C104.4,27.07 104.98,27.35 104.98,28.13 C104.98,28.91 104.31,29.26 103.32,29.26 C102.229897,29.2735657 101.231032,28.6531769 100.76,27.67 L100.63,27.45 L97.88,29 L97.99,29.22 C99.0528362,31.1806695 101.153575,32.3499118 103.38,32.22 C106.38,32.22 108.33,30.57 108.33,28.02 C108.33,25.47 106.83,24.45 104.41,23.41 L104.42,23.42 Z M119,17.86 L115.65,17.86 L115.65,32.12 L119,32.12 L119,27.94 L124.35,27.94 L124.35,32.12 L127.7,32.12 L127.7,17.86 L124.35,17.86 L124.35,24.86 L119,24.86 L119,17.86 Z M144.53,24.86 L139.06,24.86 L139.06,20.86 L145.06,20.86 L145.06,17.86 L135.69,17.86 L135.69,32.12 L139.04,32.12 L139.04,27.94 L144.51,27.94 L144.53,24.86 Z M155.94,17.86 L152.6,17.86 L152.6,32.12 L162.18,32.12 L162.18,29.12 L156,29.12 L155.94,17.86 Z M176.5,17.86 L174.1,22.42 C173.828738,22.9558228 173.588345,23.5067224 173.38,24.07 L173.26,24.38 L173.14,24.07 C172.919712,23.5069731 172.669351,22.9561802 172.39,22.42 L169.89,17.86 L166.16,17.86 L171.56,27.56 L171.56,32.12 L174.93,32.12 L174.93,27.33 L179.93,17.86 L176.5,17.86 Z" id="Shape"></path>
    </g>
  </g>
</svg>
