<svg viewBox="0 0 1325 393" xmlns="http://www.w3.org/2000/svg"><title>up-education</title><path d="M1324.1 140.8c-5.7 0-11.3-.1-17-.1h-7.2c0-1.1-.1-2-.1-2.9 0-14.3 0-28.6-.1-42.9 0-2.5-.3-5.1-1-7.5-1.4-4.8-5.2-7.4-10.2-7.5h-2.2c-7.2-.1-11.6 4.2-12.6 11.2-.3 2-.4 4.1-.4 6.2v43.4h-23.9l-.2-.2c-.1-.1-.1-.1-.1-.2-.1-.5-.1-1-.1-1.4V60.5c0-.2.1-.4.2-.8h22.4v7.6c.1.1.3.1.4.2.3-.4.7-.7 1-1.1 4.5-6.2 10.7-9 18.3-9.4 5.4-.3 10.6.5 15.7 2.4 9 3.3 14.2 9.8 16.2 19 .3 1.5.4 3.2.6 4.7.1.8.3 1.5.4 2.3-.1 18.3-.1 36.8-.1 55.4zm-658.6 97.3c.1-1.3.2-2 .2-2.8 0-6.6-.1-13.3-.2-19.9-.1-9.3-.3-18.5-.5-27.8-.1-5.5-.3-11-.5-16.5 1.8-.5 22.7-.7 26.4-.3.5 1.7.7 103.6.2 108.1-.7 0-1.5.1-2.2.1h-19.7c-1.6 0-2.4-.5-3.2-1.8-9.2-14.9-18.5-29.7-27.8-44.5-3.5-5.6-7-11.1-10.4-16.7-.5-.7-1-1.4-1.6-2.1-.7 10.8.1 21.6 0 32.4-.1 10.8.2 21.5.3 32.4H600V170.6c.8-.1 1.5-.1 2.2-.1h19.7c1.6 0 2.4.5 3.2 1.8 13 21.3 26.1 42.5 39.1 63.7.2.7.6 1.1 1.3 2.1zm69.2-172.4V32.4h24l.1.1c.1.1.1.1.1.2 0 .7.1 1.4.1 2.2 0 35 0 70.1-.1 105.1 0 .1-.1.3-.3.5h-22.7v-8.3c-.6.5-.9.6-1 .9-3.6 5-8.5 7.9-14.4 9.2-11.5 2.3-22.4.9-32.3-5.8-7.2-4.9-12.1-11.6-14.8-19.8-4.1-12.2-4.1-24.4 1.1-36.3 5.4-12.5 15.1-20.2 28.4-23 7.4-1.5 14.7-1.2 21.8 1.8 2.7 1.1 5.1 2.6 7.3 4.5.9.5 1.6 1.1 2.7 2zm1.3 34.1c.2-10.3-7.5-20.5-20.4-20.4-13.2 0-20.5 10-20.5 20.4 0 12 8.1 20.6 20.1 20.7 13.5.2 20.6-10 20.8-20.7zm107.4 97.9h25.4c4 16.5 8 33 11.9 49.5 1.9-3.9 2.7-8.1 3.8-12.1 1.1-4.2 2.2-8.3 3.3-12.5 1.1-4.1 2.2-8.2 3.2-12.3 1.1-4.2 2.2-8.3 3.3-12.6h20.6l13.2 49.5c1.5-2.5 1.8-5.3 2.6-8s1.3-5.4 1.9-8.1c.7-2.8 1.4-5.6 2-8.4.7-2.8 1.3-5.6 2-8.4.7-2.7 1.3-5.4 2-8.1l2.1-8.4h25.2C957.6 225 949.3 252 941 279h-22.7c-4.5-17.3-8.9-34.5-13.4-51.7h-.5c-4.5 17.2-8.9 34.4-13.4 51.7h-22.7c-8.2-27-16.5-54-24.9-81.3zm177.9-130.2v-8h24.2v80.8c-1.6.5-20.2.6-24.1.2v-8c-1.6 1.8-2.7 3.3-4 4.4-4.1 3.6-9 5.5-14.3 6.2-8.7 1.2-17-.1-24.8-4.1-9.5-4.9-15.4-12.7-18.9-22.5-2.1-5.9-3-11.9-2.7-18.1.4-10.4 3.4-19.9 10.3-28 6-7 13.6-11.3 22.6-13 5.6-1.1 11.2-1.1 16.8.3 5.7 1.4 10.5 4.2 14.1 8.9 0 .2.1.3.8.9zm-20.3 53.1c13 .3 20.2-10.3 20.3-20.6 0-11.8-8.6-20.7-20.2-20.7-12.2 0-20.1 9.1-20 20.8 0 11.2 8.1 20.7 19.9 20.5zM626.6 98v18.2H660c.2 8.2 0 16.1.1 24-1.9.5-56.5.7-60.2.2v-108h60v24.1h-33.4c0 5.7-.1 11.2 0 16.9h32.4v24.5c-10.7.1-21.3 0-32.3.1zm162.2 147.8h-60.6c.1.9.1 1.5.3 2.2 1.9 6.9 7.9 11.9 15.2 12.8 3.9.5 7.8.3 11.4-1.6 2.1-1.1 3.7-2.8 5.3-4.4.7-.7 1.4-1.2 2.5-1.2 7.4.1 14.9 0 22.3 0 .3 0 .6.1 1.1.1-.2.7-.4 1.3-.6 1.8-4.5 9.3-11 16.8-20.3 21.6-4.9 2.6-10.2 4-15.8 4.3-7.1.5-13.8-.7-20.2-3.6-13.1-6-21.8-16-24.5-30.2-3.6-18.5 2.4-33.7 17.4-45.1 6.8-5.1 14.7-7.5 23.3-7.6 6.8-.1 13.2 1.1 19.3 3.9 8.2 3.9 14.5 9.8 18.9 17.7 4.5 8.1 6 16.9 5.5 26.1 0 1.1-.3 2-.5 3.2zm-60.2-16.7h36.2c-1.3-7.5-8.6-13.2-17-13.6-10.1-.4-17.4 5.6-19.2 13.6zm416.9-58.2v55.5c1.1.1 1.4-.9 1.8-1.4 6.6-8.5 13.2-17.1 19.7-25.7.9-1.2 1.8-1.7 3.4-1.7 8.1.1 16.2 0 24.2 0 .7 0 1.4.1 2.6.1-5.1 6.3-10.3 12.1-15.2 17.9-5 5.9-10.1 11.8-15.3 17.8 9.8 15.1 19.6 30.1 29.5 45.2-2 .5-23.1.7-27.6.3-7.5-12.7-15-25.5-22.5-38.3-.2 0-.3.1-.5.1v38.1h-24.3v-108c8 .1 16 .1 24.2.1zm45.1-114.2c11.9 0 20.9 2.3 28.7 8.1 9.9 7.3 15.3 17.3 16.9 29.5 1.6 12.6-1.6 23.9-9.5 33.8-6.9 8.6-16.1 13.3-27.1 14.7-8.5 1.1-16.7.3-24.7-2.9-8.9-3.6-15.6-9.8-20.3-18.1-3.9-7-6-14.5-5.6-22.5.7-15.7 7.1-28.3 20.8-36.7 6-3.6 14.2-6 20.8-5.9zm3.4 22.9c-8 .1-13.3 3.1-17 8.7-3.6 5.4-4.5 11.4-2.7 17.6 2 7 6.5 11.9 13.7 13.8 7.3 1.9 13.7 0 18.8-5.5 5.1-5.5 6.5-12.2 4.9-19.4-2.4-10-11.3-15.6-17.7-15.2zm-184.2 202c-8.6-.1-16.7-2-24-6.5-10-6.3-16.1-15.4-18.7-26.8-3.2-13.9-.2-26.7 8.6-37.9 6.6-8.4 15.5-13.1 26-14.8 7.7-1.2 15.3-.9 22.7 1.5 13.1 4.2 21.8 13.2 26.5 26 1.8 4.9 2.8 10 2.7 15.2-.1 7.9-2 15.5-6.1 22.4-6.9 11.7-17.2 18.4-30.6 20.2-2.4.4-4.8.5-7.1.7zm-2.2-23.1c8.9.1 14.2-3 18-8.5 5-7.2 4.8-18.2-1.5-25.6-5.7-6.7-15.8-8.5-23.3-4.3-9.6 5.4-13.3 17.6-8.2 27.6 3.5 6.9 9.2 10.7 15 10.8zm-181.7-199h24.5v80.8c-1.7.5-19.4.6-23 .2v-7.7c-.6.5-.9.6-1 .8-3.7 6.3-9.5 9.1-16.5 9.6-5.4.4-10.7.1-15.8-1.8-10.7-3.9-16.6-11.8-18.7-22.7-.5-2.7-.6-5.6-.6-8.3-.1-16 0-32 0-48v-2.9c8.1-.2 16-.1 24.3-.1 0 1.1.1 2 .1 2.9v42.9c0 2.5.4 5.1 1 7.6 1.1 4.3 4.2 6.7 8.5 7.4 2 .3 3.9.5 5.9.2 5.2-.8 8.6-3.7 10.1-8.6.7-2.1 1-4.4 1-6.6.1-14.2 0-28.5 0-42.7.2-1 .2-2 .2-3zm122.3 31.1h-24.4c-.6-.9-1.3-2-2-3.1-3.5-5.4-8.7-7.8-14.9-8.1-5.1-.3-9.7 1.1-13.4 4.6-3.4 3.2-5.3 7.2-6.1 11.7-1.1 6.8 0 13.1 4.5 18.5 2.9 3.4 6.7 5.3 11.1 6.1 3.5.6 6.8.2 10.1-.9 4.1-1.4 7.2-4.1 9.4-7.8.9-1.5 1.9-2 3.6-1.9 6.6.1 13.1 0 19.7 0h2.7c-1.7 7.6-5.1 13.9-10.1 19.4-7.8 8.5-17.5 13.3-29 14.1-26.5 1.8-46.3-17.4-47-41.9-.7-24.3 16.8-42.7 39-44.5 28-2.2 44.7 18 46.8 33.8zm143.6-31.3h11.7v18.5h-11.6c0 3.1-.1 6.1-.1 9v53.7h-24.4V78h-11.8V59.4h11.8c.1-9.1 0-17.9.1-26.7 1.9-.5 19.7-.7 24.3-.3 0 8.9-.1 17.7 0 26.9zM830.6 197.6h11.5v18.6h-11.4v62.4c-1.8.5-20.9.6-24.5.2v-62.5c-4.1-.4-8 0-11.9-.3v-18.5h11.8V171c1.9-.6 21.1-.7 24.6-.2-.1 8.8-.1 17.6-.1 26.8zm235.1.1h22.6v8.2c2-2.3 3.6-4.4 5.5-6.3 1.9-1.9 4.3-2.9 6.9-3.7 2.6-.7 5.3-1.2 8.4-.9.1 8 0 16.1 0 24.2-2 .2-3.8.2-5.6.6-2 .4-4.1.8-6 1.5-4.2 1.6-6.5 4.8-7.2 9.1-.3 2-.5 4-.5 5.9v42.5h-24c-.4-1.6-.6-76.8-.1-81.1zm71-57.2h-23.8l-.2-.2c-.1-.1-.1-.1-.1-.2-.1-.3-.1-.6-.1-.9V60.3c0-.2.1-.4.2-.8h24v81zm-24.1-89.8V32.4h24.1v18.3h-24.1zM473.2 35.4C446.8 11.8 415.3 0 378.8 0c-37 0-64.2 10.4-89.6 36.8V15.4h-92.4v173.5c0 42.9-19.1 65-56.1 65-36.4 0-45.9-20.3-45.9-65V15.4H0v211.1c0 73.3 43.5 115.1 109.7 115.1 39.9 0 69.6-14.7 89.9-46V393h92.7V269.6c20.2 25.8 48.3 38.2 84.8 38.2 38.2 0 72.5-13.5 100.5-41 31.5-30.3 48.3-69.6 48.3-112.9.1-47.2-17.9-87.6-52.7-118.5zM361.9 229.2c-39.4 0-69.7-29.3-72.7-69.2-.2-2.2-.3-4.4-.3-6.7 0-2.1.1-4.2.3-6.3 3.1-38.4 33.7-66.7 69.9-66.7 45.5 0 78.1 32 78.1 74.2 0 40.4-33.1 74.7-75.3 74.7z" fill="#FFF" fill-rule="evenodd"/></svg>
