<svg width="33" height="57" viewBox="0 0 33 57" xmlns="http://www.w3.org/2000/svg"><title></title><path d="M0 28.294c0 .491.189.926.567 1.304L26.99 56.02c.378.378.812.567 1.304.567.491 0 .926-.19 1.304-.567l2.835-2.835c.378-.378.567-.813.567-1.305 0-.491-.189-.926-.567-1.304L10.149 28.294 32.433 6.01c.378-.378.567-.812.567-1.304 0-.491-.189-.926-.567-1.304L29.598.567C29.22.189 28.785 0 28.294 0c-.492 0-.926.189-1.304.567L.567 26.99c-.378.378-.567.812-.567 1.304z" fill="#3E3E37" fill-rule="evenodd"/></svg>