<svg width="33" height="57" viewBox="0 0 33 57" xmlns="http://www.w3.org/2000/svg"><title></title><path d="M33 28.294c0 .491-.189.926-.567 1.304L6.01 56.02c-.378.378-.812.567-1.304.567-.491 0-.926-.19-1.304-.567L.567 53.186C.189 52.808 0 52.373 0 51.88c0-.491.189-.926.567-1.304l22.284-22.283L.567 6.01C.189 5.632 0 5.198 0 4.706c0-.491.189-.926.567-1.304L3.402.567C3.78.189 4.215 0 4.706 0c.492 0 .926.189 1.304.567L32.433 26.99c.378.378.567.812.567 1.304z" fill="#3E3E37" fill-rule="evenodd"/></svg>