<?xml version="1.0" encoding="UTF-8"?>
<svg width="200px" height="200px" viewBox="0 0 200 200" version="1.1" xmlns="http://www.w3.org/2000/svg" xmlns:xlink="http://www.w3.org/1999/xlink">
    <!-- Generator: Sketch 42 (36781) - http://www.bohemiancoding.com/sketch -->
    <title>Artboard</title>
    <desc>Created with Sketch.</desc>
    <defs></defs>
    <g id="Page-1" stroke="none" stroke-width="1" fill="none" fill-rule="evenodd">
        <g id="Artboard" fill-rule="nonzero" fill="#60913F">
            <g id="craft-cms-logo" transform="translate(2.000000, 49.000000)">
                <g id="Page-1">
                    <g id="craft-cms-logo">
                        <path d="M181.732247,20.8974793 L181.679122,20.8974793 L170.148362,29.929331 L169.282809,34.4801938 L157.338709,34.4801938 L160.829424,16.1771075 C161.652216,9.27252857 172.181372,11.3622765 173.750509,11.7543469 L175.432376,2.93470483 C156.497776,-4.33347728 150.970164,16.1771075 150.970164,16.1771075 L147.480745,34.4801938 L147.419845,34.4801938 L135.561263,43.766956 L145.710768,43.766956 L134.555772,102.222964 L144.416328,102.222964 L155.564846,43.766956 L167.508946,43.766956 L163.143609,66.6493723 C160.368141,83.3091274 177.076665,81.4846416 182.409917,80.4145354 L184.07753,71.6893525 C171.321003,74.5658291 173.002869,66.6493723 173.002869,66.6493723 L177.369502,43.766956 L192.573676,43.766956 L194.344948,34.4801938 L179.140774,34.4801938 L181.732247,20.8974793 L181.732247,20.8974793 Z" id="Shape"></path>
                        <path d="M103.555273,34.7027552 L101.773635,44.5510967 C125.867858,34.0648321 121.808315,52.3342755 121.808315,52.3342755 L121.315935,55.0813559 C121.315935,55.0813559 107.189814,47.840347 97.3007518,55.9030215 C97.3007518,55.9030215 91.508809,59.7590269 91.508809,67.4723318 C91.508809,75.1869307 98.588714,79.3327835 98.588714,79.3327835 C98.588714,79.3327835 109.237078,84.9434009 117.575143,75.9762472 L116.65517,80.1492733 L125.980587,80.1492733 L131.841203,52.3873279 C136.240229,24.9941616 103.555273,34.7027552 103.555273,34.7027552 L103.555273,34.7027552 Z M119.0471,67.7608852 C108.787457,78.2743229 102.216777,71.3891535 102.216777,71.3891535 C97.7685127,67.0647339 102.684538,62.6238578 102.684538,62.6238578 C109.471606,56.4296638 119.856935,63.2359016 119.856935,63.2359016 L119.0471,67.7608852 L119.0471,67.7608852 Z" id="Shape"></path>
                        <path d="M95.2055456,34.508661 C87.6008672,34.5888866 80.6907037,38.8253167 80.6907037,38.8253167 L81.5743961,34.6691122 L72.4472272,34.6691122 L64.1195278,80.2359687 L73.4462402,80.2359687 L79.0917647,50.2574672 C83.2653324,41.7897827 93.5806919,44.4217005 93.5806919,44.4217005 L95.2055456,34.508661 L95.2055456,34.508661 Z" id="Shape"></path>
                        <path d="M59.6220259,14.981487 C60.093674,15.3373264 60.5407032,15.7138692 60.9799579,16.0981758 L68.0572715,10.5522566 L68.2775467,10.2649971 C67.1943108,9.17159957 66.0307393,8.13772428 64.7686919,7.18666253 C48.5279288,-5.05680179 23.9827895,0.0685799629 9.95125742,18.6369284 C-4.07897895,37.201395 -2.28697518,62.1735592 13.9576751,74.4183175 C27.2208354,84.4154645 46.0129039,82.8290677 60.1014485,71.8071031 L60.0871954,71.7786359 L53.3493648,66.5005667 C42.9096147,73.2058755 29.9574312,73.6885232 20.5866638,66.6260809 C8.11001565,57.2202743 6.7326476,38.0372941 17.5092893,23.7752498 C28.2898181,9.51320542 47.144082,5.57697434 59.6220259,14.981487 L59.6220259,14.981487 Z" id="Shape"></path>
                    </g>
                </g>
            </g>
        </g>
    </g>
</svg>