<?xml version="1.0" encoding="utf-8"?>
<!-- Generator: Adobe Illustrator 20.1.0, SVG Export Plug-In . SVG Version: 6.00 Build 0)  -->
<svg version="1.1" id="Layer_1" xmlns="http://www.w3.org/2000/svg" xmlns:xlink="http://www.w3.org/1999/xlink" x="0px" y="0px"
	 viewBox="0 0 512 512" style="enable-background:new 0 0 512 512;" xml:space="preserve">
<style type="text/css">
	.st0{fill:#60913F;}
</style>
<title>design-tool</title>
<desc>Created with Sketch.</desc>
<g id="Page-1">
	<g id="design-tool">
		<g id="Layer_1_1_">
			<path id="Shape" class="st0" d="M505.3,498.2L18.1,11c-2.3-2.3-5.8-3-8.8-1.8c-3,1.2-5,4.2-5,7.5v487.2c0,4.5,3.6,8.1,8.1,8.1
				h64.7h64.7h64.7h64.7h64.7h64.7h99.2c3.3,0,6.2-2,7.5-5C508.3,504,507.6,500.5,505.3,498.2z M408.5,495.8L408.5,495.8v-26.4
				c0-4.5-3.6-8.1-8.1-8.1c-4.5,0-8.1,3.6-8.1,8.1v26.4h-48.5v-26.4c0-4.5-3.6-8.1-8.1-8.1c-4.5,0-8.1,3.6-8.1,8.1v26.4h-48.5v-26.4
				c0-4.5-3.6-8.1-8.1-8.1c-4.5,0-8.1,3.6-8.1,8.1v26.4h-48.5v-26.4c0-4.5-3.6-8.1-8.1-8.1s-8.1,3.6-8.1,8.1v26.4h-48.5v-26.4
				c0-4.5-3.6-8.1-8.1-8.1s-8.1,3.6-8.1,8.1v26.4H85.1v-26.4c0-4.5-3.6-8.1-8.1-8.1c-4.5,0-8.1,3.6-8.1,8.1v26.4H20.5V36.2
				l459.6,459.6L408.5,495.8L408.5,495.8z"/>
			<path id="Shape_1_" class="st0" d="M350.1,433.5L82.8,167.1c-2.3-2.3-5.8-3-8.8-1.7c-3,1.3-5,4.2-5,7.5v266.4
				c0,4.5,3.6,8.1,8.1,8.1h267.3c3.3,0,6.2-2,7.5-5C353.1,439.3,352.4,435.8,350.1,433.5z M85.1,431.2V192.3l239.7,238.9H85.1z"/>
			<path id="Shape_2_" class="st0" d="M505.3,275.6l-61-61L257.8,28c0,0,0,0,0,0l0,0c0,0-0.1-0.1-0.1-0.1c-0.2-0.1-0.3-0.3-0.5-0.4
				c-0.1-0.1-0.1-0.1-0.2-0.2c-0.1-0.1-0.3-0.2-0.4-0.3c-0.1-0.1-0.2-0.1-0.3-0.2c-0.1-0.1-0.2-0.2-0.4-0.2
				c-0.1-0.1-0.3-0.1-0.4-0.2c-0.1-0.1-0.2-0.1-0.3-0.2c-0.2-0.1-0.3-0.1-0.5-0.2c-0.1,0-0.2-0.1-0.3-0.1c-0.2-0.1-0.4-0.1-0.6-0.2
				c-0.1,0-0.1,0-0.2,0l0,0c0,0,0,0,0,0L147,4.5c-0.3-0.1-0.6-0.1-0.9-0.1c0,0-0.1,0-0.1,0c-0.1,0-0.1,0-0.2,0c-0.1,0-0.3,0-0.4,0
				c-0.1,0-0.2,0-0.3,0c-0.1,0-0.2,0-0.2,0c0,0-0.1,0-0.1,0c0,0-0.1,0-0.1,0c-0.2,0-0.3,0-0.5,0.1c-0.1,0-0.1,0-0.2,0
				c-0.6,0.1-1.2,0.3-1.8,0.5c0,0-0.1,0-0.1,0.1c-0.2,0.1-0.3,0.1-0.5,0.2c-0.1,0-0.1,0.1-0.2,0.1c-0.1,0-0.1,0.1-0.2,0.1
				c-0.1,0.1-0.2,0.1-0.3,0.2c-0.1,0.1-0.2,0.1-0.3,0.2c0,0,0,0-0.1,0c-0.1,0-0.1,0.1-0.2,0.1c0,0-0.1,0.1-0.1,0.1
				c-0.1,0.1-0.1,0.1-0.2,0.2c-0.1,0.1-0.2,0.2-0.4,0.3c0,0-0.1,0.1-0.1,0.2c-0.1,0.1-0.3,0.3-0.4,0.4c0,0,0,0.1-0.1,0.1
				c0,0,0,0,0,0c0,0.1-0.1,0.1-0.1,0.2c-0.1,0.1-0.2,0.2-0.3,0.4c0,0,0,0,0,0c0,0.1-0.1,0.1-0.1,0.2c0,0.1-0.1,0.1-0.1,0.2
				c0,0.1-0.1,0.2-0.1,0.2c0,0,0,0,0,0.1C138.1,8.8,138,8.9,138,9c0,0,0,0.1-0.1,0.1c0,0,0,0.1,0,0.1c-0.1,0.3-0.2,0.5-0.3,0.8
				c0,0,0,0,0,0c-0.1,0.3-0.1,0.6-0.2,0.8c0,0.1,0,0.2,0,0.2c0,0.2-0.1,0.3-0.1,0.4c0,0.1,0,0.2,0,0.2c0,0.1,0,0.2,0,0.3
				c0,0.1,0,0.2,0,0.3c0,0.1,0,0.3,0,0.4c0,0.1,0,0.2,0,0.2c0,0,0,0.1,0,0.1c0,0.3,0.1,0.6,0.1,0.9l21.3,106.6c0,0,0,0,0,0l0,0
				c0,0.2,0.1,0.3,0.1,0.5c0,0.2,0.1,0.3,0.1,0.5c0.1,0.2,0.1,0.3,0.2,0.5c0,0.1,0.1,0.2,0.1,0.3c0.1,0.1,0.1,0.3,0.2,0.4
				c0,0.1,0.1,0.2,0.1,0.3c0.1,0.1,0.2,0.3,0.2,0.4c0.1,0.1,0.1,0.2,0.2,0.2c0.1,0.1,0.2,0.3,0.3,0.4c0.1,0.1,0.1,0.1,0.2,0.2
				c0.1,0.1,0.2,0.3,0.4,0.4c0,0,0.1,0.1,0.1,0.1l186.6,186.6l61,61c1.6,1.6,3.6,2.4,5.7,2.4s4.1-0.8,5.7-2.4l85.4-85.4
				c1.5-1.5,2.4-3.6,2.4-5.7S506.8,277.1,505.3,275.6z M252,45.2l175.2,175.2l-16,16L236,61.2L252,45.2z M399.8,247.8l-19.1,19.1
				L205.5,91.7l9.5-9.5c0,0,0,0,0,0l9.5-9.5L399.8,247.8z M159.4,41.7l-3.8-19l5.3,1.1l13.7,2.7L159.4,41.7z M163.2,60.8l30.5-30.5
				l41.9,8.4l-32,32c0,0,0,0,0,0l-15.2,15.2c0,0,0,0,0,0l-16.8,16.8L163.2,60.8z M178.1,119.1l16-16l175.2,175.2l-16,16L178.1,119.1
				z M414.2,355.2l-49.5-49.5l21.7-21.7l52.2-52.2l49.5,49.5L414.2,355.2z"/>
			<path id="Shape_3_" class="st0" d="M505.3,100.1l-61-61L413.9,8.7c-11.6-11.6-30.4-11.6-41.9,0l-27.4,27.4
				c-11.6,11.6-11.6,30.4,0,41.9l30.5,30.5l61,61c1.5,1.5,3.6,2.4,5.7,2.4s4.2-0.9,5.7-2.4l57.9-57.9
				C508.5,108.4,508.5,103.3,505.3,100.1z M355.9,66.6c-5.3-5.3-5.3-13.8,0-19.1l27.4-27.4c5.3-5.3,13.8-5.3,19.1,0l24.8,24.8
				l-46.5,46.5L355.9,66.6z M441.7,152.3l-49.5-49.5l46.5-46.5l49.5,49.5L441.7,152.3z"/>
		</g>
	</g>
</g>
</svg>
