<?xml version="1.0" encoding="utf-8"?>
<!-- Generator: Adobe Illustrator 20.1.0, SVG Export Plug-In . SVG Version: 6.00 Build 0)  -->
<svg version="1.1" id="Layer_1" xmlns="http://www.w3.org/2000/svg" xmlns:xlink="http://www.w3.org/1999/xlink" x="0px" y="0px"
	 viewBox="0 0 60 60" style="enable-background:new 0 0 60 60;" xml:space="preserve">
<style type="text/css">
	.st0{fill:#60913F;}
</style>
<title>graph</title>
<desc>Created with Sketch.</desc>
<g id="Page-1">
	<g id="graph">
		<g id="Capa_1">
			<g id="Group">
				<path id="Shape" class="st0" d="M59,55.5v-39H47v39h-3v-31H32v31h-3v-23H17v23h-3v-14H2v14H1c-0.6,0-1,0.4-1,1s0.4,1,1,1h1h12h3
					h12h3h12h3h12c0.6,0,1-0.4,1-1S59.6,55.5,59,55.5z M4,55.5v-12h8v12H4z M19,55.5v-21h8v21H19z M34,55.5v-29h8v29H34z M49,55.5
					v-37h8v37H49z"/>
				<path id="Shape_1_" class="st0" d="M8,27.8c0.2,0,0.3,0,0.5-0.1L44.8,6.8l-2.3,5c-0.2,0.5,0,1.1,0.5,1.3
					c0.1,0.1,0.3,0.1,0.4,0.1c0.4,0,0.7-0.2,0.9-0.6l3.6-7.8V4.7c0-0.1,0-0.1,0-0.2V4.4l0,0V4.3c0-0.1,0-0.1,0-0.2V4V3.9V3.8
					c0,0,0,0-0.1-0.1c0,0,0-0.1-0.1-0.1l-0.1-0.1l-0.1-0.1c0,0-0.1,0-0.1-0.1l0,0h-0.1c-0.1,0-0.1,0-0.2,0c0,0,0,0-0.1,0l-8.6-0.8
					c-0.6-0.1-1,0.4-1.1,0.9s0.3,1,0.9,1.1L43.8,5L7.5,26c-0.5,0.3-0.6,0.9-0.4,1.4C7.3,27.7,7.7,27.8,8,27.8z"/>
			</g>
		</g>
	</g>
</g>
</svg>
