<?xml version="1.0" encoding="UTF-8"?>
<svg width="512px" height="512px" viewBox="0 0 512 512" version="1.1" xmlns="http://www.w3.org/2000/svg" xmlns:xlink="http://www.w3.org/1999/xlink">
    <!-- Generator: Sketch 41.2 (35397) - http://www.bohemiancoding.com/sketch -->
    <title>light-bulb</title>
    <desc>Created with Sketch.</desc>
    <defs></defs>
    <g id="Page-1" stroke="none" stroke-width="1" fill="none" fill-rule="evenodd">
        <g id="light-bulb" fill="#60913F">
            <g id="Layer_1">
                <g id="Group">
                    <path d="M281.6,332.8 C286.319,332.8 290.133,328.977 290.133,324.267 L290.133,204.8 L315.733,204.8 C339.259,204.8 358.4,185.66 358.4,162.133 C358.4,138.607 339.26,119.466 315.733,119.466 C292.207,119.466 273.066,138.606 273.066,162.133 L273.066,187.733 L238.933,187.733 L238.933,162.133 C238.933,138.607 219.793,119.466 196.266,119.466 C172.74,119.466 153.599,138.606 153.599,162.133 C153.599,185.659 172.739,204.8 196.266,204.8 L221.866,204.8 L221.866,324.267 C221.866,328.977 225.689,332.8 230.399,332.8 C235.109,332.8 238.932,328.977 238.932,324.267 L238.932,204.8 L273.065,204.8 L273.065,324.267 C273.067,328.977 276.881,332.8 281.6,332.8 Z M290.133,162.133 C290.133,148.019 301.619,136.533 315.733,136.533 C329.847,136.533 341.333,148.019 341.333,162.133 C341.333,176.247 329.847,187.733 315.733,187.733 L290.133,187.733 L290.133,162.133 Z M221.867,187.733 L196.267,187.733 C182.153,187.733 170.667,176.247 170.667,162.133 C170.667,148.019 182.153,136.533 196.267,136.533 C210.381,136.533 221.867,148.019 221.867,162.133 L221.867,187.733 Z" id="Shape"></path>
                    <path d="M60.928,18.15 L93.594,45.568 C95.198,46.916 97.144,47.565 99.081,47.565 C101.513,47.565 103.936,46.532 105.617,44.519 C108.646,40.909 108.177,35.525 104.567,32.496 L71.902,5.077 C68.292,2.056 62.916,2.526 59.879,6.127 C56.849,9.745 57.318,15.121 60.928,18.15 Z" id="Shape"></path>
                    <path d="M66.449,92.612 L26.368,78.029 C21.939,76.425 17.05,78.703 15.428,83.132 C13.824,87.561 16.102,92.459 20.531,94.072 L60.612,108.655 C61.576,109.005 62.558,109.176 63.53,109.176 C67.012,109.176 70.288,107.017 71.551,103.553 C73.165,99.123 70.878,94.225 66.449,92.612 Z" id="Shape"></path>
                    <path d="M412.894,47.565 C414.822,47.565 416.768,46.908 418.364,45.568 L451.047,18.133 C454.657,15.104 455.134,9.728 452.097,6.11 C449.093,2.517 443.709,2.031 440.082,5.06 L407.399,32.495 C403.789,35.524 403.32,40.9 406.349,44.518 C408.03,46.524 410.453,47.565 412.894,47.565 Z" id="Shape"></path>
                    <path d="M51.183,162.15 L8.533,162.15 C3.823,162.15 0,165.973 0,170.683 C0,175.393 3.823,179.216 8.533,179.216 L51.183,179.216 C55.893,179.216 59.716,175.393 59.716,170.683 C59.716,165.973 55.893,162.15 51.183,162.15 Z" id="Shape"></path>
                    <path d="M496.555,83.106 C494.951,78.686 490.044,76.39 485.624,78.012 L445.534,92.604 C441.097,94.217 438.818,99.115 440.431,103.544 C441.694,107.009 444.962,109.159 448.452,109.159 C449.416,109.159 450.406,108.997 451.362,108.638 L491.46,94.046 C495.889,92.433 498.176,87.535 496.555,83.106 Z" id="Shape"></path>
                    <path d="M256,0 C161.894,0 85.333,76.561 85.333,170.667 C85.333,242.688 113.578,296.414 174.242,339.746 C174.532,339.951 174.959,340.207 175.275,340.377 C175.719,340.616 184.901,345.744 187.205,360.132 C177.571,363.81 170.667,373.086 170.667,384 C170.667,390.554 173.142,396.536 177.203,401.067 C173.141,405.598 170.667,411.58 170.667,418.134 C170.667,424.688 173.142,430.669 177.203,435.201 C173.141,439.732 170.667,445.714 170.667,452.268 C170.667,466.382 182.153,477.868 196.267,477.868 C200.977,477.868 204.8,474.045 204.8,469.335 C204.8,464.625 200.977,460.802 196.267,460.802 C191.565,460.802 187.734,456.971 187.734,452.269 C187.734,447.567 191.565,443.736 196.267,443.736 L281.6,443.736 C286.319,443.736 290.133,439.913 290.133,435.203 C290.133,430.493 286.319,426.67 281.6,426.67 L196.267,426.67 C191.565,426.67 187.734,422.839 187.734,418.137 C187.734,413.435 191.565,409.604 196.267,409.604 L281.6,409.604 C286.319,409.604 290.133,405.781 290.133,401.071 C290.133,396.361 286.319,392.538 281.6,392.538 L196.267,392.538 C191.565,392.538 187.734,388.707 187.734,384.005 C187.734,379.303 191.565,375.472 196.267,375.472 L281.6,375.472 C286.319,375.472 290.133,371.649 290.133,366.939 C290.133,362.229 286.319,358.406 281.6,358.406 L204.22,358.406 C201.199,336.919 187.273,327.609 183.783,325.595 C127.497,285.258 102.401,237.463 102.401,170.672 C102.401,85.979 171.308,17.072 256.001,17.072 C340.694,17.072 409.601,85.979 409.601,170.672 C409.601,237.462 384.504,285.258 328.219,325.595 C324.294,327.856 307.201,339.334 307.201,366.939 C307.201,371.649 311.015,375.472 315.734,375.472 C320.444,375.472 324.267,379.303 324.267,384.005 C324.267,388.707 320.444,392.538 315.734,392.538 C311.015,392.538 307.201,396.361 307.201,401.071 C307.201,405.781 311.015,409.604 315.734,409.604 C320.444,409.604 324.267,413.435 324.267,418.137 C324.267,422.839 320.444,426.67 315.734,426.67 C311.015,426.67 307.201,430.493 307.201,435.203 C307.201,439.913 311.015,443.736 315.734,443.736 C320.444,443.736 324.267,447.567 324.267,452.269 C324.267,457.133 320.598,460.802 315.734,460.802 L230.4,460.802 C225.69,460.802 221.867,464.625 221.867,469.335 L221.867,486.4 C221.867,500.514 233.353,512 247.467,512 L264.534,512 C278.648,512 290.134,500.514 290.134,486.4 L290.134,477.867 L315.734,477.867 C330.096,477.867 341.334,466.62 341.334,452.267 C341.334,445.713 338.859,439.732 334.797,435.2 C338.859,430.669 341.334,424.687 341.334,418.133 C341.334,411.579 338.859,405.598 334.797,401.066 C338.859,396.535 341.334,390.553 341.334,383.999 C341.334,373.085 334.43,363.809 324.788,360.131 C327.092,345.744 336.265,340.624 336.615,340.428 C337.016,340.232 337.4,340.001 337.758,339.745 C398.413,296.413 426.667,242.687 426.667,170.666 C426.667,76.561 350.106,0 256,0 Z M273.067,486.4 C273.067,491.102 269.244,494.933 264.534,494.933 L247.467,494.933 C242.765,494.933 238.934,491.102 238.934,486.4 L238.934,477.867 L273.067,477.867 L273.067,486.4 Z" id="Shape"></path>
                    <path d="M503.467,162.133 L460.8,162.133 C456.081,162.133 452.267,165.956 452.267,170.666 C452.267,175.376 456.081,179.199 460.8,179.199 L503.467,179.199 C508.186,179.199 512,175.376 512,170.666 C512,165.956 508.186,162.133 503.467,162.133 Z" id="Shape"></path>
                </g>
            </g>
        </g>
    </g>
</svg>