<?xml version="1.0" encoding="utf-8"?>
<!-- Generator: Adobe Illustrator 20.1.0, SVG Export Plug-In . SVG Version: 6.00 Build 0)  -->
<svg version="1.1" id="Layer_1" xmlns="http://www.w3.org/2000/svg" xmlns:xlink="http://www.w3.org/1999/xlink" x="0px" y="0px"
	 viewBox="0 0 470 470" style="enable-background:new 0 0 470 470;" xml:space="preserve">
<style type="text/css">
	.st0{fill:#60913F;}
</style>
<title>tags</title>
<desc>Created with Sketch.</desc>
<g id="Page-1">
	<g id="tags">
		<g id="Group">
			<path id="Shape" class="st0" d="M467.8,182.3l-77.3-76.9c-1.4-1.4-3.3-2.2-5.3-2.2H37.5c-4.1,0-7.5,3.4-7.5,7.5v278.5
				c0,4.1,3.4,7.5,7.5,7.5h347.7c2,0,3.9-0.8,5.3-2.2l77.3-76.9c1.4-1.4,2.2-3.3,2.2-5.3V187.6C470,185.6,469.2,183.7,467.8,182.3z
				 M455,309.3l-72.9,72.5H45V118.2h337.1l72.9,72.5V309.3z"/>
			<path id="Shape_1_" class="st0" d="M362.7,80.7c0-4.1-3.4-7.5-7.5-7.5H7.5c-4.1,0-7.5,3.4-7.5,7.5v278.5c0,4.1,3.4,7.5,7.5,7.5
				s7.5-3.4,7.5-7.5v-271h340.2C359.4,88.2,362.7,84.9,362.7,80.7L362.7,80.7z"/>
			<path id="Shape_2_" class="st0" d="M254.9,175.1c4.1,0,7.5-3.4,7.5-7.5s-3.4-7.5-7.5-7.5c0,0-71.7,0-71.7,0
				c-4.1,0-7.5,3.4-7.5,7.5v164.7c0,4.1,3.4,7.5,7.5,7.5h71.7c4.1,0,7.5-3.4,7.5-7.5s-3.4-7.5-7.5-7.5h-64.2v-67.4h42.7
				c4.1,0,7.5-3.4,7.5-7.5s-3.4-7.5-7.5-7.5h-42.7v-67.4L254.9,175.1L254.9,175.1z"/>
			<path id="Shape_3_" class="st0" d="M115,175.1c16.5,0,29.8,13.4,29.8,29.8c0,4.1,3.4,7.5,7.5,7.5s7.5-3.4,7.5-7.5
				c0-24.7-20.1-44.8-44.8-44.8S70.1,180.2,70.1,205c0,32.3,26,44.5,41.6,51.8c18,8.5,33,17.2,33,38.2c0,16.5-13.4,29.8-29.8,29.8
				S85,311.5,85,295c0-4.1-3.4-7.5-7.5-7.5S70,290.9,70,295c0,24.7,20.1,44.8,44.8,44.8s44.8-20.1,44.8-44.8
				c0-32.3-26-44.5-41.6-51.8c-18-8.5-33-17.2-33-38.2C85.1,188.5,98.5,175.1,115,175.1L115,175.1z"/>
			<path id="Shape_4_" class="st0" d="M312,160.1c-24.7,0-44.8,20.1-44.8,44.8L267,295c0,24.7,20.1,44.8,44.8,44.8
				s44.8-20.1,44.8-44.8V205C356.7,180.2,336.6,160.1,312,160.1z M341.7,295c0,16.5-13.4,29.8-29.8,29.8S282,311.5,282,295l0.1-90.1
				c0-16.5,13.4-29.8,29.8-29.8c16.4,0,29.7,13.4,29.7,29.8V295L341.7,295z"/>
			<path id="Shape_5_" class="st0" d="M407.5,272.5c12.4,0,22.5-10.1,22.5-22.5c0-12.4-10.1-22.5-22.5-22.5S385,237.6,385,250
				C385,262.4,395.1,272.5,407.5,272.5z M407.5,242.5c4.1,0,7.5,3.4,7.5,7.5s-3.4,7.5-7.5,7.5s-7.5-3.4-7.5-7.5
				C400,245.9,403.4,242.5,407.5,242.5z"/>
		</g>
	</g>
</g>
</svg>
