<?xml version="1.0" encoding="utf-8"?>
<!-- Generator: Adobe Illustrator 20.1.0, SVG Export Plug-In . SVG Version: 6.00 Build 0)  -->
<svg version="1.1" id="Layer_1" xmlns="http://www.w3.org/2000/svg" xmlns:xlink="http://www.w3.org/1999/xlink" x="0px" y="0px"
	 viewBox="0 0 613 613" style="enable-background:new 0 0 613 613;" xml:space="preserve">
<style type="text/css">
	.st0{fill:#60913F;}
</style>
<title>shopping-cart</title>
<desc>Created with Sketch.</desc>
<g id="Page-1">
	<g id="shopping-cart">
		<g id="Capa_1">
			<g id="Group">
				<path id="Shape" class="st0" d="M187.6,360h360.9L612.3,132h-94L484.6,27.8L343.9,73.4l19.2,58.6h-6.6L321.8,27.8L181.1,73.4
					l19.2,58.6h-75.2l-15.6-62.5C101.6,38.3,74.4,16.2,43,16.2H0v26.1h43c19.5,0,36.5,13,41.7,32.6l69.1,270.4
					c-14.2,10.2-23.6,27-23.6,46.1c0,31.2,26.1,57.4,57.4,57.4h351.8v-26.1H187.6c-17,0-31.2-14.4-31.2-31.2
					C156.3,374.3,170.7,360,187.6,360L187.6,360z M467.7,60.3l23.5,70.4H389.6l-14.4-40.4L467.7,60.3z M304.9,60.3l23.5,70.4H226.8
					l-14.4-40.4L304.9,60.3z M578.5,156.8L529,334H177.2l-45.6-177.2L578.5,156.8L578.5,156.8z"/>
				<path id="Shape_1_" class="st0" d="M424.8,487.7c-30,0-54.7,24.7-54.7,54.7c0,30,24.7,54.7,54.7,54.7
					c31.2,0,54.7-24.7,54.7-54.7C479.5,512.4,454.7,487.7,424.8,487.7z M424.8,572.4c-17,0-30-14.4-30-30c0-17,14.4-30,30-30
					c17,0,30,13,30,30C454.7,559.4,440.4,572.4,424.8,572.4z"/>
				<path id="Shape_2_" class="st0" d="M224.1,487.7c-30,0-54.7,24.7-54.7,54.7c0,30,24.7,54.7,54.7,54.7s54.7-24.7,54.7-54.7
					C278.8,512.4,254.1,487.7,224.1,487.7z M224.1,572.4c-17,0-30-14.4-30-30c0-17,14.4-30,30-30s30,13,30,30
					S239.7,572.4,224.1,572.4z"/>
			</g>
		</g>
	</g>
</g>
</svg>
